<svg xmlns="http://www.w3.org/2000/svg" viewBox="0 0 67.42 67.43"><defs><style>.cls-1{fill:none;stroke:#000;stroke-linecap:round;stroke-miterlimit:10;stroke-width:0.15px;}</style></defs><g id="Layer_2" data-name="Layer 2"><g id="Layer_1-2" data-name="Layer 1"><path class="cls-1" d="M66.05,41.21a14.19,14.19,0,0,1-1.32,1.12,6.29,6.29,0,0,1-2.37.77,9.7,9.7,0,0,0-2.2.41,4.83,4.83,0,0,0-1,.52,11.58,11.58,0,0,1-2.4,1.17,12.64,12.64,0,0,0-1.3.59,2.79,2.79,0,0,0-1.25,1.54c-.12.3-.25.58-.39.87a1.73,1.73,0,0,1-1.77.93,7.82,7.82,0,0,1-3.69-1.42c-1-.64-2-1.19-3-1.79a5.35,5.35,0,0,1-1.76-1.65,2.88,2.88,0,0,1-.22-2.7,5.44,5.44,0,0,0,.25-.78,1.43,1.43,0,0,0-.39-1.38,2.61,2.61,0,0,0-.64-.51,3.1,3.1,0,0,1-1.59-2.1A1.86,1.86,0,0,0,40,35.42a1.08,1.08,0,0,0-1.5.66,6.68,6.68,0,0,0-.26.87,1.48,1.48,0,0,1-1.41,1.11c-.49.07-1,.08-1.48.14a1.74,1.74,0,0,0-1.47,1.42,2.75,2.75,0,0,0,.55,2.28c.3.42.66.8,1,1.23a17.94,17.94,0,0,1,2.26,4.53A15.92,15.92,0,0,1,38.26,50a4.58,4.58,0,0,1-.14,2.46,2.21,2.21,0,0,0-.09,1,.31.31,0,0,0,.32.33,3.38,3.38,0,0,0,.9,0,2.36,2.36,0,0,1,2,.76,7.63,7.63,0,0,1,1.17,1.8q.33.63.69,1.26A2.21,2.21,0,0,1,43,59.93a5.75,5.75,0,0,1-2.2,2,6.9,6.9,0,0,0-1.74,1.35l-.21.21a1.5,1.5,0,0,1-1.94.29,18.32,18.32,0,0,1-2.32-1.4,29.18,29.18,0,0,0-2.93-1.81,4.57,4.57,0,0,1-1.62-1.73,6.4,6.4,0,0,0-1.15-1.53A5.55,5.55,0,0,0,26,55.89a2.94,2.94,0,0,0-1.79.32,13.87,13.87,0,0,1-2.23.9c-1.19.37-1.36.87-1.37,1.92a11.28,11.28,0,0,1-.39,3,4.8,4.8,0,0,1-2.17,3,12.51,12.51,0,0,1-2.66,1.06,15.53,15.53,0,0,1-2.77.59,6.53,6.53,0,0,1-1.82,0,2.57,2.57,0,0,1-2-1.64,3.17,3.17,0,0,1-.15-1.8,11.57,11.57,0,0,0,.06-2.82,10.1,10.1,0,0,1,.32-3.63A2.76,2.76,0,0,0,9.19,56,1.94,1.94,0,0,0,8,54.31c-.51-.26-1-.45-1.57-.68a2.41,2.41,0,0,1-1.3-1.06,1.84,1.84,0,0,1,.49-2.46c.46-.3,1-.54,1.41-.83A4.74,4.74,0,0,0,8.5,47.86a2.33,2.33,0,0,0,.28-1.7,7.42,7.42,0,0,1-.15-1.32,3.32,3.32,0,0,1,.68-2,6.29,6.29,0,0,1,2.88-2.08,7.44,7.44,0,0,0,2.49-1.23c.84-.76,1.81-1.36,2.7-2.07a3.86,3.86,0,0,0,1.27-1.55,3.35,3.35,0,0,0,.11-2,18.18,18.18,0,0,1-.39-2,4.71,4.71,0,0,1,.25-2,23,23,0,0,0,1-3.51,9.69,9.69,0,0,1,.44-1.86,3.85,3.85,0,0,1,.57-1.25c.48-.59.86-1.24,1.4-1.79A13,13,0,0,1,24,20a3.27,3.27,0,0,0,1.32-2.26,23.39,23.39,0,0,1,.59-3,4.79,4.79,0,0,1,.9-1.68,2.25,2.25,0,0,1,2.68-.48,14.9,14.9,0,0,0,1.83.8A1.11,1.11,0,0,0,32.65,13a1.5,1.5,0,0,0,.12-.93,1.59,1.59,0,0,0-.06-.3,1.28,1.28,0,0,1,.6-1.41,10.72,10.72,0,0,1,1.42-.83,2.79,2.79,0,0,0,1.21-3.13,12.31,12.31,0,0,1-.44-2.07,1.29,1.29,0,0,1,1.27-1.5,13.76,13.76,0,0,1,1.44,0,2.19,2.19,0,0,0,1.61-.67A12.1,12.1,0,0,1,42.07.2c.08-.06.17-.07.25-.12"/><path class="cls-1" d="M55.94,19.16a2,2,0,0,1-.85,1.61,3.46,3.46,0,0,1-1.34.43,11.47,11.47,0,0,0-2.61.57c-.55.22-1,.55-1.57.8a1.91,1.91,0,0,1-1.58.19,4.49,4.49,0,0,1-1-.64l-.42-.26a.9.9,0,0,0-1.2.18A12.58,12.58,0,0,0,43.81,24c-.93,1.35-1.77,2.77-2.58,4.2-.33.59-.7,1.16-1,1.77a1.23,1.23,0,0,0,0,1.28,1.72,1.72,0,0,0,1.35.66,1.17,1.17,0,0,0,1.2-.77,5.44,5.44,0,0,1,.86-1.42,2.51,2.51,0,0,1,2.34-.8c.69.11,1.35.32,2,.47a.9.9,0,0,1,.59,1.27,5.05,5.05,0,0,1-2.1,2.79,1.5,1.5,0,0,1-.59.18,4.36,4.36,0,0,0-.52.11c-.45.17-.58.36-.44.82a5.32,5.32,0,0,0,.93,1.74,3.94,3.94,0,0,0,.86.87,1.56,1.56,0,0,0,1.48.18c.27-.09.54-.22.81-.33a3.45,3.45,0,0,1,1.46-.24,21.91,21.91,0,0,0,4.05-.31,9.34,9.34,0,0,1,1.29-.05c.31,0,.46.14.48.45a2,2,0,0,1-.08.81,10.7,10.7,0,0,1-.79,1.59,4,4,0,0,0-.59,1.59c-.06.72.31,1.32,1.16,1.23a2.09,2.09,0,0,0,.9-.36L58,41a3.11,3.11,0,0,1,2.76-.35,7.85,7.85,0,0,0,1.51.34,2.5,2.5,0,0,0,2.24-.9,1.14,1.14,0,0,0,0-1.52,4.7,4.7,0,0,0-1.65-1.35c-.89-.51-1.73-1.09-2.63-1.6a6.63,6.63,0,0,0-1.95-.71.83.83,0,0,1-.76-.93,25.42,25.42,0,0,1,.19-2.76,17.42,17.42,0,0,0,0-1.77,6.13,6.13,0,0,1,.49-2.61,5.32,5.32,0,0,0,.27-3,4.67,4.67,0,0,1,.86-3.88A4.13,4.13,0,0,1,60.44,19c.19-.13.38-.24.56-.38a1.14,1.14,0,0,0,.22-1.67,5.54,5.54,0,0,0-1.72-1.55,6.62,6.62,0,0,0-2.75-1,2.72,2.72,0,0,0-.9,0,.78.78,0,0,0-.7.84,4.33,4.33,0,0,0,.21,1.47,10.75,10.75,0,0,1,.58,2.43"/><path class="cls-1" d="M33,.08c.15.34.36.66.51,1a5.87,5.87,0,0,1,.3,1.5,13.53,13.53,0,0,0,.68,2.79,5.59,5.59,0,0,1,.28,1.14,1.92,1.92,0,0,1-1,2,11.39,11.39,0,0,1-1.56.69c-.7.29-1.38.6-2.07.87a9.36,9.36,0,0,1-1.72.41,2.24,2.24,0,0,0-1,.4,6.78,6.78,0,0,0-2.76,4.38,15.11,15.11,0,0,0-.16,1.65,3.73,3.73,0,0,1-1.64,2.91,8.12,8.12,0,0,0-2.23,2.4,12.47,12.47,0,0,0-1.23,3A26.15,26.15,0,0,1,18,29.33a5.07,5.07,0,0,0-.34,3.51A9.12,9.12,0,0,1,18,34.49a2.35,2.35,0,0,1-1.19,2.31,9.81,9.81,0,0,1-1.36.72,7.8,7.8,0,0,0-1.34.78,21.76,21.76,0,0,1-2.61,1.39,7.24,7.24,0,0,0-3.25,3,4.64,4.64,0,0,0-.64,2.35,3.3,3.3,0,0,1-.5,2,2.06,2.06,0,0,1-1.44.86,2.09,2.09,0,0,1-1-.23,8,8,0,0,0-1.59-.44,1.31,1.31,0,0,0-1,.2A1,1,0,0,0,2,48.83a10.85,10.85,0,0,0,.81,1.11,6.15,6.15,0,0,1,1,2.34,5.29,5.29,0,0,0,.43,1.29,2.42,2.42,0,0,0,1.53,1,9.13,9.13,0,0,1,.89.27A2.17,2.17,0,0,1,8.12,57c0,.64,0,1.28,0,1.92s0,1.16,0,1.74a6.37,6.37,0,0,1-.55,2.76c-.18.44-.36.88-.53,1.32a3.06,3.06,0,0,1-.37.63c-.2.28-.46.3-.86.06a3.92,3.92,0,0,1-1.89-2.37c-.38-1.44-.77-2.87-1.09-4.32a8.46,8.46,0,0,1-.14-1.5,1.77,1.77,0,0,0-1.3-1.68c-.43-.16-.87-.3-1.31-.45"/><path class="cls-1" d="M28.16.08A2.17,2.17,0,0,0,26.9,1.25,5.66,5.66,0,0,0,26.42,3a4.2,4.2,0,0,1-2.61,3.21,20.36,20.36,0,0,0-2,.83,3.17,3.17,0,0,0-1.25,1.24,6.63,6.63,0,0,0-.91,2.43,5.58,5.58,0,0,0,.07,1.68,4.86,4.86,0,0,1,.14.93,1.26,1.26,0,0,1-1,1.44c-.52.18-1,.28-1.57.42a2.06,2.06,0,0,0-1.72,2A2.87,2.87,0,0,1,14,19.52c-.11.06-.2.15-.31.21a1.57,1.57,0,0,0-.78,1.2c-.1.58-.15,1.17-.29,1.74a9.34,9.34,0,0,1-.91,2.16A16,16,0,0,0,10.57,28a9.29,9.29,0,0,1-.94,2.29,3.66,3.66,0,0,0-.45,2.36,31.19,31.19,0,0,1,.28,3.48c0,.39,0,.78-.05,1.17,0,.89.36,1,1.14.93a5.3,5.3,0,0,0,1.91-.73,17.39,17.39,0,0,1,2.25-1A10.85,10.85,0,0,0,16,36a1.85,1.85,0,0,0,1-2.13c-.1-.63-.28-1.25-.34-1.89A5.11,5.11,0,0,1,17,29.41c.31-.7.71-1.34,1.05-2a15.55,15.55,0,0,0,1-2.77A20.85,20.85,0,0,1,19.91,22a7,7,0,0,1,2-2.55,9.37,9.37,0,0,0,.89-.78,2.35,2.35,0,0,0,.58-2.34c-.07-.26-.08-.53-.16-.78A1.62,1.62,0,0,1,23.61,14c.95-1.17,1.69-2.48,2.57-3.7.18-.26.39-.5.6-.75a2.37,2.37,0,0,1,2.27-.87,5.82,5.82,0,0,0,2.55-.4,3.54,3.54,0,0,0,1.27-.74,1.75,1.75,0,0,0,.56-1.59,8.31,8.31,0,0,0-1.19-3.45,1.94,1.94,0,0,0-.54-.6A10.67,10.67,0,0,1,30.25.56,1.48,1.48,0,0,0,29.6.08"/><path class="cls-1" d="M60.14,67.31a14.6,14.6,0,0,0-2.5-2.82A2.67,2.67,0,0,0,56.12,64a17.21,17.21,0,0,0-2.79.21,4,4,0,0,1-1.66-.12,1.52,1.52,0,0,1-1-1.44,4.39,4.39,0,0,1,.52-2.1c.32-.72.77-1.38,1-2.13a14.72,14.72,0,0,0,.66-2.94c.13-1,.2-1.9.29-2.85a7.79,7.79,0,0,0,0-1.08,1.16,1.16,0,0,0-.83-1.06A14.24,14.24,0,0,0,50.81,50a6.1,6.1,0,0,1-2.22-1.07c-1.08-.84-2.27-1.5-3.42-2.23a8.22,8.22,0,0,1-2.5-2.27,7.17,7.17,0,0,1-.9-2c-.17-.56-.24-1.18-.81-1.53a4.45,4.45,0,0,0-1.26-.51,9.92,9.92,0,0,0-2.61-.3,2.22,2.22,0,0,0-.77.13,1,1,0,0,0-.63,1.46c.3.71.64,1.41,1,2.1a35.49,35.49,0,0,1,1.6,3.75c.29.8.67,1.56.95,2.37.15.41.28.82.43,1.23a2.33,2.33,0,0,0,.78,1.16A8.6,8.6,0,0,1,42.86,55a11.85,11.85,0,0,0,1.34,1.74,2.86,2.86,0,0,1,.63,1.11,2.54,2.54,0,0,1-.45,2.16c-.47.68-1,1.33-1.52,2a6.2,6.2,0,0,1-1.36,1.14,3.73,3.73,0,0,0-.65.54,1.24,1.24,0,0,0-.34.78.69.69,0,0,0,.64.8,2.33,2.33,0,0,0,1.49-.24,6.37,6.37,0,0,1,2.5-.53,9.15,9.15,0,0,1,2.39.18,2,2,0,0,1,1.74,1.5,10.78,10.78,0,0,1,.16,1.14"/><path class="cls-1" d="M67.34,37.76A4.41,4.41,0,0,1,67,39a9.4,9.4,0,0,1-.87,2,.46.46,0,0,0-.08.17c.24.19,0,.31-.07.43a4.85,4.85,0,0,1-2.9,1.8,18.68,18.68,0,0,0-2.08.54,5.86,5.86,0,0,0-1.31.69,7,7,0,0,1-1.92.93,7.16,7.16,0,0,0-1.62.66,3.66,3.66,0,0,0-1.51,2,5.26,5.26,0,0,1-.56,1.11,1.22,1.22,0,0,1-1.32.5,10.86,10.86,0,0,1-3-.83,13.43,13.43,0,0,1-1.41-.84c-1.1-.71-2.24-1.34-3.33-2.07A6.09,6.09,0,0,1,43,44a3.26,3.26,0,0,1-.35-2.06c0-.27.08-.54.1-.81a1.58,1.58,0,0,0-1-1.57A5.08,5.08,0,0,0,38.63,39c-.51,0-1,0-1.53.06a6.2,6.2,0,0,0-1.66.21,1.08,1.08,0,0,0-.86.87,2.64,2.64,0,0,0,.14,1.08,4.36,4.36,0,0,0,.49.9,26.53,26.53,0,0,1,3.42,7.5,15.67,15.67,0,0,1,.43,1.92,1.72,1.72,0,0,0,1,1.35,6.13,6.13,0,0,1,2.64,2.69,16.26,16.26,0,0,0,1.08,1.66,2.1,2.1,0,0,1,.05,2.69,6.46,6.46,0,0,1-2.15,2.2,8.81,8.81,0,0,0-1.83,1.44A2.78,2.78,0,0,0,39,65.39c0,1.11.7,1.69,1.83,1.44a11.55,11.55,0,0,0,2.6-1.06,6.49,6.49,0,0,1,2.62-.68,2.61,2.61,0,0,1,2.48,1.14,2.85,2.85,0,0,1,.4,1.11"/><path class="cls-1" d="M48.41.08a4.39,4.39,0,0,1,.08,2.16,3.71,3.71,0,0,1-1.85,2.47,8.79,8.79,0,0,0-1.54.89c-.43.37-.47.47-.27,1,.08.21.17.43.27.63A1.66,1.66,0,0,1,45,9c-.44.75-1,1.44-1.35,2.22a4,4,0,0,0-.15,3.66,5.48,5.48,0,0,0,2.28,2.48c1,.55,1.92,1.09,2.85,1.68a3.38,3.38,0,0,0,3.14.36A2,2,0,0,0,53.21,17c-.09-.69-.3-1.36-.42-2a2.91,2.91,0,0,1,.13-1.84A2.23,2.23,0,0,1,54.8,11.9a7,7,0,0,1,2.9.42,12.1,12.1,0,0,0,3.16.54,10.1,10.1,0,0,0,1.55-.19A4.32,4.32,0,0,1,64.9,13a7.05,7.05,0,0,1,2,1.28,1.23,1.23,0,0,1,.37,1.15,12.41,12.41,0,0,0,0,2.28c0,.17.06.35.08.54a2,2,0,0,1-1,1.89c-.61.4-1.25.74-1.89,1.08a10.39,10.39,0,0,0-2,1.17,3.47,3.47,0,0,0-1.22,3.36,5,5,0,0,1-.79,3.54A2.89,2.89,0,0,0,60,31.61a2.38,2.38,0,0,0,.63,1c.53.58,1,1.17,1.58,1.72a5.28,5.28,0,0,0,3.16,1.44,3.47,3.47,0,0,0,1.8-.21s.07-.08.13-.09"/><path class="cls-1" d="M31.1.11c.17.06.2.24.29.36.3.39.69.7,1,1.08a5,5,0,0,1,.88,1.83c.23.82.53,1.63.7,2.46a1.87,1.87,0,0,1-1.13,2.45,8.53,8.53,0,0,1-3.24,1c-.29,0-.6,0-.89,0a2.77,2.77,0,0,0-1.65.86,14.91,14.91,0,0,0-2.5,3.45,5,5,0,0,0-.55,3A2.62,2.62,0,0,1,23.06,19a13.32,13.32,0,0,0-1.87,1.73,9.36,9.36,0,0,0-1.67,3.28,25.54,25.54,0,0,1-1.73,4.6,5.79,5.79,0,0,0-.67,1.67A5.37,5.37,0,0,0,17.2,33a7.32,7.32,0,0,1,.25,1.32,2,2,0,0,1-1.14,2.13A12.89,12.89,0,0,1,15.1,37a21.14,21.14,0,0,0-2.27,1.17c-.62.35-1.25.67-1.9,1a6.1,6.1,0,0,0-2.52,2,7,7,0,0,0-1,1.62A10,10,0,0,0,7,44.66a3.75,3.75,0,0,1-.19,1.07c-.42.94-.83,1.06-1.81.94-.54-.07-1-.34-1.57-.41a3.2,3.2,0,0,0-2.25.43,1.24,1.24,0,0,0-.38,1.9,7.18,7.18,0,0,0,.92,1.14,6,6,0,0,1,1.6,3.81,6.1,6.1,0,0,1,0,1.35A5.54,5.54,0,0,1,.14,54.5"/><path class="cls-1" d="M26.75.11a4.3,4.3,0,0,0-.63,1.83A9.1,9.1,0,0,1,25.63,4a3.5,3.5,0,0,1-2,1.78c-.66.26-1.36.41-2,.68a2.83,2.83,0,0,0-1.4,1.15c-.37.6-.7,1.23-1,1.85a3,3,0,0,0-.32,2.32,3.13,3.13,0,0,1,.07.81,1.51,1.51,0,0,1-1,1.44,2.88,2.88,0,0,1-1.08.21,6.57,6.57,0,0,0-1.83.15c-.71.2-1,.43-1,1.32,0,.38,0,.76,0,1.14,0,.81-.52.88-1.07.56a10.58,10.58,0,0,0-1.3-.77,7.45,7.45,0,0,0-3.18-.81,1.69,1.69,0,0,0-1.76,2,3.75,3.75,0,0,0,.77,1.92,2.4,2.4,0,0,0,1.71,1c.55.08,1.11.1,1.66.21,1.12.22,1.36.85,1.22,1.8a7.78,7.78,0,0,1-.66,1.86c-.44,1-.79,2.08-1.19,3.12a5.33,5.33,0,0,1-2,2.61,1.19,1.19,0,0,0-.46,1.32c.11.48.3.93.4,1.41a7.92,7.92,0,0,1,.12,2.43A5.64,5.64,0,0,1,7.93,37c-.38,1.09-.88,1.19-1.86.93a6.56,6.56,0,0,0-1.92-.39,3.65,3.65,0,0,0-3.42,2,9,9,0,0,0-.65,1.41"/><path class="cls-1" d="M58.82.08a4.62,4.62,0,0,1,1.31,1.47,11.9,11.9,0,0,1,1,2.43,12.86,12.86,0,0,0,1,2.37A2.86,2.86,0,0,0,64.15,7.7a1.44,1.44,0,0,1,.79.39c.1.11.23.23.17.39a.55.55,0,0,1-.45.36,3.25,3.25,0,0,1-.44,0,5.59,5.59,0,0,0-2.32.42,4.41,4.41,0,0,1-2.33.21c-.43-.08-.85-.21-1.27-.33a3.56,3.56,0,0,0-2.58.23c-.78.37-1.6.66-2.39,1a5.64,5.64,0,0,0-1.48.9,3,3,0,0,0-1.05,2.58A17.81,17.81,0,0,1,51,16.19a.76.76,0,0,1-.84.81,7.46,7.46,0,0,1-2.53-.66,4.33,4.33,0,0,1-2.48-2.76,1.88,1.88,0,0,1,.48-2,5.93,5.93,0,0,1,1.16-1,7,7,0,0,0,1.93-2.22,9.75,9.75,0,0,0,1.19-3.42c.26-1.24.35-2.5.49-3.75A2.91,2.91,0,0,1,50.63.11"/><path class="cls-1" d="M19.61,26c-.22.17-.18.43-.24.66a23.8,23.8,0,0,1-.93,2.61,6.2,6.2,0,0,0-.22,4.14,3.85,3.85,0,0,1,0,2.55,2.68,2.68,0,0,1-.66.87,8.71,8.71,0,0,1-1.81,1.22c-.72.39-1.37.87-2.07,1.3s-1.22.6-1.82.9A7.66,7.66,0,0,0,9,42.47a4.25,4.25,0,0,0-.82,2.46,11.65,11.65,0,0,1-.08,1.56,2.9,2.9,0,0,1-2,2.34,5.75,5.75,0,0,1-1.42.27.82.82,0,0,0-.45.12.47.47,0,0,0-.24.45,9.54,9.54,0,0,0,.45,2.85A2.32,2.32,0,0,0,5.83,54a11.49,11.49,0,0,1,1.75.8,2.1,2.1,0,0,1,1,1.93c0,1.59-.14,3.18-.12,4.77a21.65,21.65,0,0,1-.39,2.88,3.26,3.26,0,0,0,.3,1.92,5.58,5.58,0,0,1,.49,1"/><path class="cls-1" d="M14.48.08a3.76,3.76,0,0,0-2.1,1.14,3.13,3.13,0,0,0-.53,1A10.69,10.69,0,0,1,11,3.71a2.6,2.6,0,0,0-.39,1.08,1.49,1.49,0,0,0,.84,1.47c.42.25.88.43,1.32.65a2.26,2.26,0,0,1,1.35,1.78A18,18,0,0,1,14.42,11a3,3,0,0,1-.55,1.8,23.52,23.52,0,0,1-1.47,1.86,2.19,2.19,0,0,1-2.16.64c-.76-.12-1.5-.32-2.27-.38a4.11,4.11,0,0,0-1,0,1.63,1.63,0,0,0-1.56,1.61A5.25,5.25,0,0,0,7.07,21a4.32,4.32,0,0,0,2.18.88,8.63,8.63,0,0,1,.88.2A1.16,1.16,0,0,1,11,23.57a8,8,0,0,1-.56,1.83c-.26.72-.51,1.44-.84,2.13A4.27,4.27,0,0,1,7.3,29.6c-.53.23-1.07.47-1.62.69A2.69,2.69,0,0,1,3,30.05,8.81,8.81,0,0,0,.49,28.88c-.13,0-.23-.14-.35-.18"/><path class="cls-1" d="M51.5.08a1.83,1.83,0,0,0-.6,1.14,9.46,9.46,0,0,0-.24,1.83c-.07.91-.2,1.82-.3,2.73a6.22,6.22,0,0,1-.52,2.16,6.37,6.37,0,0,1-2.43,2.88,11,11,0,0,0-1.1.66,2,2,0,0,0-.62,2.31A3.59,3.59,0,0,0,48.31,16a2.22,2.22,0,0,0,.81,0,1.1,1.1,0,0,0,1-.92,7.14,7.14,0,0,0,.11-1.38c0-.36,0-.72.06-1.08a2.41,2.41,0,0,1,1-1.71A9.59,9.59,0,0,1,53,9.86,5.09,5.09,0,0,0,54.29,9a1.44,1.44,0,0,0,.44-1.11c0-.33,0-.66,0-1a1,1,0,0,1,.72-1,.65.65,0,0,1,.72.29,2.59,2.59,0,0,1,.3.48,2.94,2.94,0,0,0,1.43,1.5,4.46,4.46,0,0,0,2.19.53,1.43,1.43,0,0,0,1.5-1,2.09,2.09,0,0,0-.08-1.26Q60.94,4.7,60.38,3a5.17,5.17,0,0,0-1.3-2,4,4,0,0,0-1-.9h0"/><path class="cls-1" d="M49,.08a6.86,6.86,0,0,1-.16,2.85,4.34,4.34,0,0,1-1.37,2.19,3.59,3.59,0,0,0-.8.89,2.7,2.7,0,0,0-.25,1.24,3.86,3.86,0,0,1-1.2,2.61,6.32,6.32,0,0,0-1.3,1.92A3.35,3.35,0,0,0,44.2,15a7.19,7.19,0,0,0,2.59,2.4c.84.5,1.69,1,2.57,1.41a2.64,2.64,0,0,0,2.26.15,1.82,1.82,0,0,0,1.16-1.59,5.83,5.83,0,0,0-.23-2,4.93,4.93,0,0,1-.22-1.83A2.21,2.21,0,0,1,53.5,11.9a4.43,4.43,0,0,1,2.7-.38c.82.1,1.62.29,2.44.44a9.47,9.47,0,0,0,3.48,0,5.49,5.49,0,0,1,3.45.47,6.4,6.4,0,0,0,1.77.61"/><path class="cls-1" d="M67.28,59.12c-.07-.23-.29-.29-.46-.39a5,5,0,0,0-4.17-.46,8.19,8.19,0,0,1-1.71.4H60.8c-.41,0-.41,0-.55-.39a20.54,20.54,0,0,1-.86-4.47,7,7,0,0,0-.19-1.2,1.17,1.17,0,0,0-1.22-1,3.53,3.53,0,0,0-2.88,1.29,5.09,5.09,0,0,0-.81,2A12.39,12.39,0,0,0,53.87,58c0,.56,0,1.12,0,1.68a.8.8,0,0,0,.6.78,4.11,4.11,0,0,0,1.78,0,13.61,13.61,0,0,0,2.78-.88c.91-.31,1-.27,1.05.61A16.84,16.84,0,0,0,60.52,63c.31,1.09.69,2.14,1.06,3.21q.2.55.42,1.11"/><path class="cls-1" d="M67.28,57.74a1.84,1.84,0,0,0-.82-.47,10.48,10.48,0,0,1-1-.55,2.17,2.17,0,0,0-2-.21,4.81,4.81,0,0,1-.84.26A1.56,1.56,0,0,1,61,56.18a4.37,4.37,0,0,1-.9-2.55,7.21,7.21,0,0,0-.32-2,1,1,0,0,0-1.11-.7,7.56,7.56,0,0,0-3.27,1,2.92,2.92,0,0,0-1.23,1.95,27.42,27.42,0,0,0-.67,4,12.57,12.57,0,0,1-.39,1.92,4.59,4.59,0,0,0-.17,1.11c0,.46.34.95,1.14,1a8.74,8.74,0,0,0,2-.33,9,9,0,0,1,1.71-.3,1.91,1.91,0,0,1,1.83,1.11,11.11,11.11,0,0,1,.72,2c.25.78.64,1.5,1,2.25.11.25.2.5.31.75"/><path class="cls-1" d="M.08,21.26c.06.17.25.2.36.33a2.32,2.32,0,0,1,.5,1.68,19.78,19.78,0,0,1-.47,2.16,3.66,3.66,0,0,0,0,1.71,2.23,2.23,0,0,0,1.09,1.32,6.5,6.5,0,0,0,2.3.84,6,6,0,0,0,2.35-.15A5.91,5.91,0,0,0,8,28.51a3.89,3.89,0,0,0,1.65-2.33A8.31,8.31,0,0,0,10,24.41a1.36,1.36,0,0,0-1-1.5c-.65-.29-1.35-.46-2-.8A4.14,4.14,0,0,1,5.2,20a13.88,13.88,0,0,0-1-2.13,3.92,3.92,0,0,0-.65-.81.89.89,0,0,0-.88-.21,3.12,3.12,0,0,1-.44.09c-.3,0-.3,0-.43-.26a1.5,1.5,0,0,1,.54-.49c.87-.46.77-1.2.27-1.8A4,4,0,0,0,.08,13"/><path class="cls-1" d="M67.28,55.88a.22.22,0,0,0-.12-.13,6,6,0,0,1-1.68-1.17,2.94,2.94,0,0,0-2.7-.77c-.76.14-1.08-.36-1.21-1a10.06,10.06,0,0,0-.38-2,3.35,3.35,0,0,0-1-1.5.92.92,0,0,0-1.25-.06c-.42.25-.81.52-1.23.75a5.94,5.94,0,0,1-2.2.65,1.91,1.91,0,0,0-1.76,1.72q-.34,1.85-.6,3.72A11.1,11.1,0,0,1,52,59.69a5.14,5.14,0,0,0-.61,2.25,1.46,1.46,0,0,0,1.2,1.5,5.45,5.45,0,0,0,1.89,0,16.64,16.64,0,0,1,2.11-.25,2.28,2.28,0,0,1,2.06,1.1c.63,1,1.29,2,1.93,3.06"/><path class="cls-1" d="M67.28,56.6a.15.15,0,0,0-.09-.1,7.21,7.21,0,0,1-2-1.1,1.94,1.94,0,0,0-2-.31,3.71,3.71,0,0,1-.74.22,1.56,1.56,0,0,1-1.65-1.23,9.43,9.43,0,0,1-.22-1.83A3.83,3.83,0,0,0,60.43,51a1.19,1.19,0,0,0-1.55-.84,7,7,0,0,0-1.29.45c-.72.27-1.47.42-2.17.74a2.4,2.4,0,0,0-1.35,1.42,17.09,17.09,0,0,0-.6,2.64,23.07,23.07,0,0,1-.9,4.26,6.13,6.13,0,0,0-.45,1.53,1.34,1.34,0,0,0,1.2,1.56,5.91,5.91,0,0,0,1.83-.18,10.3,10.3,0,0,1,2-.3,2.06,2.06,0,0,1,2,1.23c.43.88.8,1.8,1.31,2.64.23.38.41.78.61,1.17"/><path class="cls-1" d="M49.43.08a14.46,14.46,0,0,1-.09,2.46,5.36,5.36,0,0,1-.76,2.18,10.84,10.84,0,0,0-1.47,3.34A3.38,3.38,0,0,1,46,9.8a7.71,7.71,0,0,0-1.23,1.26,3.21,3.21,0,0,0-.09,3.78A6.35,6.35,0,0,0,47.5,17.3c.63.3,1.23.66,1.84,1a2.47,2.47,0,0,0,2,.24c.81-.27,1-.86,1-1.73a22.73,22.73,0,0,0-.39-2.31,2.83,2.83,0,0,1,.64-2.43,3.28,3.28,0,0,1,1.8-1,8.29,8.29,0,0,1,3.14,0,16.58,16.58,0,0,0,3.06.21,13.76,13.76,0,0,0,1.71-.2,6.27,6.27,0,0,1,2.76.26,12.14,12.14,0,0,0,2,.54h.24"/><path class="cls-1" d="M59.48.11a3.72,3.72,0,0,1,1,1.2,14.83,14.83,0,0,1,.94,2.25,7.55,7.55,0,0,0,1,1.89,2.9,2.9,0,0,0,2.07,1.17A4.67,4.67,0,0,1,66.07,7,1.73,1.73,0,0,1,67,8.66a1.7,1.7,0,0,1-1,1.59,1.61,1.61,0,0,1-.9.06,20.89,20.89,0,0,0-2.25-.18,9.3,9.3,0,0,0-1.58.16,7.81,7.81,0,0,1-2.73-.08,8.31,8.31,0,0,0-3.22.1,8.11,8.11,0,0,0-2.21.69,3.25,3.25,0,0,0-1.57,1.47,3.36,3.36,0,0,0-.24,1.8c.07.7.33,1.35.42,2a1.53,1.53,0,0,1-.21,1.14,1.31,1.31,0,0,1-1.35.42,6,6,0,0,1-1.49-.52,9.93,9.93,0,0,1-1.89-.9,5.49,5.49,0,0,1-2.19-2.87,2.74,2.74,0,0,1,.92-2.7l1.27-1.05a5.7,5.7,0,0,0,1.37-2A25.77,25.77,0,0,0,49.31,5a10.48,10.48,0,0,0,.56-3.42c0-.46.08-.92.1-1.38"/><path class="cls-1" d="M37.22,67.34a3.88,3.88,0,0,0-1.57-3.21c-.91-.71-1.78-1.49-2.73-2.16a12.68,12.68,0,0,0-1.28-.76,4.14,4.14,0,0,1-1.92-2.06,4.68,4.68,0,0,0-2.32-2.34,3,3,0,0,0-2.63-.11A16.42,16.42,0,0,0,22.12,58a2.19,2.19,0,0,0-1,1.54,21.74,21.74,0,0,1-.63,2.88,7.76,7.76,0,0,1-.78,1.83,3.48,3.48,0,0,1-2,1.37c-1,.35-1.94.7-2.93,1L13,67.19c-.2.06-.38.2-.6.15"/><path class="cls-1" d="M13,.08a16.1,16.1,0,0,0-2.49.81c-.22.08-.42.19-.64.26a.3.3,0,0,0-.23.37,8.86,8.86,0,0,1-.09,2.67,3.43,3.43,0,0,0,.14,1.74,1.89,1.89,0,0,0,.9.93,9.82,9.82,0,0,0,1.24.56,2.47,2.47,0,0,1,1.62,2.05,4.57,4.57,0,0,1-.4,3,5,5,0,0,1-1.37,1.68,2.36,2.36,0,0,1-1.78.42,21.13,21.13,0,0,1-2.36-.52A2,2,0,0,1,5.9,12.26a4.16,4.16,0,0,0-2-3.07A10.13,10.13,0,0,1,1.75,7.55,5.18,5.18,0,0,1,1.31,7a3.49,3.49,0,0,0-1.17-1"/><path class="cls-1" d="M53.12.08a2.25,2.25,0,0,0-1.75,2c-.11.86-.12,1.72-.18,2.58a14,14,0,0,0,.05,1.71A5.3,5.3,0,0,1,51,8.21a3.24,3.24,0,0,0-.16.93c0,.19.09.27.24.26a2.05,2.05,0,0,0,2-1.7c0-.35.06-.7.11-1A2.27,2.27,0,0,1,54.31,5a2.59,2.59,0,0,1,3.07.24,2.65,2.65,0,0,1,.44.85,3.22,3.22,0,0,0,.93,1.26,1.07,1.07,0,0,0,1.8-.9,7.45,7.45,0,0,0-.35-2.1,6.45,6.45,0,0,0-1.39-2.88,5.18,5.18,0,0,0-2-1.38h-.08"/><path class="cls-1" d="M33,67.31A2,2,0,0,1,33,65.39a2.1,2.1,0,0,0,.12-2A2.5,2.5,0,0,0,32,62.36a10.07,10.07,0,0,0-1-.47,2.62,2.62,0,0,1-1.37-1.57,5.89,5.89,0,0,0-1.66-2.52,3,3,0,0,0-3.11-.47A13,13,0,0,0,22.6,58.6a3.4,3.4,0,0,0-1.29,2c-.33,1.2-.59,2.41-.83,3.63a1.94,1.94,0,0,1-1.38,1.5c-.56.2-1.15.28-1.72.45a26,26,0,0,0-2.84,1c-.18.07-.33.24-.54.18"/><path class="cls-1" d="M37.22.2a1.89,1.89,0,0,1-1.38,1.41,1.68,1.68,0,0,0-1.2,2,9.11,9.11,0,0,0,.59,2.16,3.53,3.53,0,0,1,.21,1.44,2,2,0,0,1-1,1.62,10.9,10.9,0,0,1-1.32.67A6.24,6.24,0,0,0,30.89,11a1.87,1.87,0,0,1-1.71.53,2.9,2.9,0,0,0-3,1.45,7.38,7.38,0,0,0-1.09,3.36,9.38,9.38,0,0,1-.26,1.74,3.07,3.07,0,0,1-.93,1.41c-.54.49-1.14.91-1.66,1.44a10.08,10.08,0,0,0-1.49,2c-.07.12-.15.24-.06.39"/><path class="cls-1" d="M18.11,23.63a2.35,2.35,0,0,0-.28-1.17,1.31,1.31,0,0,0-1.4-.69,3.28,3.28,0,0,0-2.26,1.4,10,10,0,0,0-1.7,3,5.05,5.05,0,0,0-.27,1.68c0,1.34,0,2.68,0,4q0,.54,0,1.08a1.76,1.76,0,0,0,.43,1.13,1.05,1.05,0,0,0,1.19.27c.85-.26,1.25-.53,1.26-1.64q0-.82,0-1.65a4.13,4.13,0,0,1,.39-1.59,8.76,8.76,0,0,1,1.3-2.06,6.39,6.39,0,0,0,1.35-3.76s0,0,0,0"/><path class="cls-1" d="M4.73.11c.3.37.55.78.86,1.15A17.5,17.5,0,0,1,6.92,2.77a3.22,3.22,0,0,1,.54,1.69A9.29,9.29,0,0,0,7.78,6.8a2.76,2.76,0,0,0,2.43,2.1,2.45,2.45,0,0,1,1.27.48A1.72,1.72,0,0,1,12,11.09a2.31,2.31,0,0,1-1.88,2.05,1.77,1.77,0,0,1-1.48-.58,3.52,3.52,0,0,1-.83-1.32,5.23,5.23,0,0,0-2-2.47C4.92,8.1,3.91,7.57,3,6.86A15.26,15.26,0,0,0,1.39,5.6,3.93,3.93,0,0,0,.08,5"/><path class="cls-1" d="M67.32,28.73a1.17,1.17,0,0,1-.53-1.14,18.51,18.51,0,0,1,.34-3,3.38,3.38,0,0,0,0-1.38c-.14-.52-.38-.9-.93-1a1.54,1.54,0,0,0-.72.14,12.5,12.5,0,0,0-2.16,1.09,2.23,2.23,0,0,0-1,2.34,14.22,14.22,0,0,0,.4,1.59,2.7,2.7,0,0,1-.28,2.1,2.69,2.69,0,0,0-.26,2.34,5.89,5.89,0,0,0,1,1.77,2.14,2.14,0,0,0,1.3.69,1.67,1.67,0,0,0,1.1-.16,5.14,5.14,0,0,0,1.69-1.31"/><path class="cls-1" d="M20.81.08c-.16.49-.2,1-.39,1.5-.31.78-.56,1.57-.9,2.34A2.23,2.23,0,0,1,17.9,5.19a5,5,0,0,0-1.39.46,1.62,1.62,0,0,0-.81,1.57.9.9,0,0,0,.16.39,2.87,2.87,0,0,0,1.38,1.1,1.2,1.2,0,0,0,1.44-.44,4,4,0,0,0,.6-1,3.64,3.64,0,0,1,.68-1,1.52,1.52,0,0,1,.93-.43,13.28,13.28,0,0,0,2.26-.35,3,3,0,0,0,2.27-2.37A14.72,14.72,0,0,0,25.69.92a5.93,5.93,0,0,1,.16-.84"/><path class="cls-1" d="M67.34,21.44a1,1,0,0,0-1-.29,2.5,2.5,0,0,0-1,.35c-.74.41-1.5.8-2.22,1.26a2.91,2.91,0,0,0-1.31,3.09c.05.39.08.78.12,1.17a3.51,3.51,0,0,1-.6,2.16,4.3,4.3,0,0,0-.57,1.32,1.63,1.63,0,0,0,.17,1.29,8.62,8.62,0,0,0,2.41,2.75,2.91,2.91,0,0,0,3,.22,3.6,3.6,0,0,0,1-.75"/><path class="cls-1" d="M13.73,31.88A.78.78,0,0,0,14,31.4a5.9,5.9,0,0,1,.93-2c.56-.95,1.34-1.72,1.93-2.64a5.23,5.23,0,0,0,.83-2.1,2.32,2.32,0,0,0-.12-1.14,1.41,1.41,0,0,0-2-.69,2.79,2.79,0,0,0-1.3,1.05,8.21,8.21,0,0,0-1.33,2.64,5.21,5.21,0,0,0,.1,2.85,9.7,9.7,0,0,1,.52,2.19.43.43,0,0,0,.18.36"/><path class="cls-1" d="M.11,46.34a2.07,2.07,0,0,1,1.29-.66,6.85,6.85,0,0,1,2.63,0,6.86,6.86,0,0,0,.9.09,1.2,1.2,0,0,0,1.38-1.11c.17-.71.23-1.43.42-2.13a11.61,11.61,0,0,1,.42-1.17,3.1,3.1,0,0,0,.15-.6,1.05,1.05,0,0,0-.33-1,8.13,8.13,0,0,0-2.12-1.56,2.74,2.74,0,0,0-2.19,0A3.67,3.67,0,0,0,.74,40c-.22.41-.38.85-.6,1.26a1,1,0,0,0,0,.3"/><path class="cls-1" d="M67.34,39.68c0,.14-.07.24-.13.36a11.42,11.42,0,0,1-1,1.92,4.76,4.76,0,0,1-2.63,1.8,11.61,11.61,0,0,0-2.26.84,2.42,2.42,0,0,0-1.34,2A2.82,2.82,0,0,0,60.35,48c.32.73.78,1.4,1.17,2.1q.4.75.84,1.5a1.84,1.84,0,0,0,1.1.87,4.94,4.94,0,0,1,2.08,1.38,5.31,5.31,0,0,0,1.79,1.32s0,0,0,.06"/><path class="cls-1" d="M26.36,24.14c-.06-.18,0-.38-.13-.54a1,1,0,0,0-1.16-.39,3.74,3.74,0,0,0-3.15,3,9.47,9.47,0,0,0-.23,3,2.31,2.31,0,0,0,1.52,2,1.29,1.29,0,0,0,1.62-.86,6.7,6.7,0,0,0,.35-1.77,8.86,8.86,0,0,1,.64-2.49,6.58,6.58,0,0,0,.54-1.95"/><path class="cls-1" d="M.11,44.72c.12.19.33.14.51.14.82,0,1.66,0,2.48,0a7.49,7.49,0,0,0,1.57,0,1.13,1.13,0,0,0,1-.69A6.08,6.08,0,0,0,6,40.82a2.87,2.87,0,0,0-1.82-2.18A2.27,2.27,0,0,0,2,39.08a4.66,4.66,0,0,0-1.38,2A7.83,7.83,0,0,0,.08,42.8"/><path class="cls-1" d="M67.34,40.52a2.23,2.23,0,0,1-.35.86,5.45,5.45,0,0,1-1.75,2.2,8.29,8.29,0,0,1-1.8.81,7.88,7.88,0,0,0-1.54.69A1.92,1.92,0,0,0,61,46.7a4.86,4.86,0,0,0,.82,2.72A6.28,6.28,0,0,0,64.42,52,5.62,5.62,0,0,1,66,53.32a4.75,4.75,0,0,0,1.35,1.21"/><path class="cls-1" d="M49,58.58A2.16,2.16,0,0,0,50.59,57a6.37,6.37,0,0,0,.27-3,1.69,1.69,0,0,0-1.58-1.59,5.79,5.79,0,0,0-2.68.14c-.7.21-.77.7-.56,1.3a3.16,3.16,0,0,0,.69,1A4.55,4.55,0,0,1,47.78,57a4.29,4.29,0,0,0,.29.9,1.07,1.07,0,0,0,.88.72"/><path class="cls-1" d="M5.33.11A13.55,13.55,0,0,0,7.61,2.24a2.56,2.56,0,0,1,.87,1.92,7.56,7.56,0,0,0,.2,2,2.6,2.6,0,0,0,1.93,1.82A4.55,4.55,0,0,1,12,8.54a2.25,2.25,0,0,1,.81,2A3.9,3.9,0,0,1,11.9,13a2.53,2.53,0,0,1-3.06.71A7,7,0,0,1,8,13.28a2.58,2.58,0,0,1-1-1.23c-.29-.53-.53-1.08-.84-1.59A4.54,4.54,0,0,0,4.81,9,20.51,20.51,0,0,1,1.66,6.53a4.29,4.29,0,0,0-1.25-.9,1.46,1.46,0,0,0-.33-.12"/><path class="cls-1" d="M.11,40a5.07,5.07,0,0,1,.81-1.5A3.93,3.93,0,0,1,4.06,37a7.83,7.83,0,0,0,1.27-.21,1.37,1.37,0,0,0,1-.66,3,3,0,0,0,.09-2.88,3.62,3.62,0,0,0-1.73-1.45,2.93,2.93,0,0,0-2,0A4.84,4.84,0,0,0,.19,32.89.35.35,0,0,0,.11,33"/><path class="cls-1" d="M39.89,9.05a1.65,1.65,0,0,0-1.32.75c-.47.58-1,1.09-1.5,1.62a4.44,4.44,0,0,0-1.18,2.67c0,.19,0,.38,0,.57a.65.65,0,0,0,.69.81,3.74,3.74,0,0,0,2.36-.84,6.42,6.42,0,0,0,2-2.55,5.38,5.38,0,0,0,.46-1.35A1.42,1.42,0,0,0,40,9.05"/><path class="cls-1" d="M4.19,28a17.32,17.32,0,0,0,2.15-.4,2.65,2.65,0,0,0,1.3-.71,1.43,1.43,0,0,0-.42-2.23,9.22,9.22,0,0,0-2.29-.77c-.32-.08-.66-.14-1-.25A1.35,1.35,0,0,0,2.66,24a2.62,2.62,0,0,0-1,2.3,1.6,1.6,0,0,0,.89,1.23A4.26,4.26,0,0,0,4.16,28"/><path class="cls-1" d="M67.34,41.12a2.86,2.86,0,0,1-.34,1,5.41,5.41,0,0,1-.87,1.53,3.76,3.76,0,0,1-1.94,1.11,7.69,7.69,0,0,0-1.6.59,1.86,1.86,0,0,0-1,2A4.67,4.67,0,0,0,63,50a9.69,9.69,0,0,0,1.74,1.38A9.66,9.66,0,0,1,66.43,53a7,7,0,0,0,.88.84"/><path class="cls-1" d="M67.34,50.12c-.14-.28-.44-.4-.64-.62a3.24,3.24,0,0,1-.78-2c0-.36,0-.72,0-1.08a.85.85,0,0,0-.61-.9,2.92,2.92,0,0,0-2.63.63,1.8,1.8,0,0,0-.27,1.92A3.75,3.75,0,0,0,64,49.94l1.12.78A5.1,5.1,0,0,1,66.43,52c.27.4.61.71.91,1.08"/><path class="cls-1" d="M15.74.08a4.17,4.17,0,0,0-2,1.23,2.57,2.57,0,0,0-.51,1.44c-.07.64,0,1.28-.09,1.92a1,1,0,0,0,.83.87,2,2,0,0,0,1.17-.31,11,11,0,0,1,2-.71,3.41,3.41,0,0,0,2.15-1.74,5.07,5.07,0,0,0,.58-1.65,2.54,2.54,0,0,0,0-.87c0-.08-.05-.13-.12-.15"/><path class="cls-1" d="M43.7.08A5.76,5.76,0,0,0,41,2.87a3.57,3.57,0,0,0-.14,1.56c0,.24.25.28.45.33a5.33,5.33,0,0,0,1.44,0,12.38,12.38,0,0,0,2.84-.46,3.86,3.86,0,0,0,2-1.19A3.05,3.05,0,0,0,48.1,1a3,3,0,0,0-.23-.87"/><path class="cls-1" d="M3.2,39.14a2.29,2.29,0,0,0-1.83,1.29,4.46,4.46,0,0,0-.63,2.31,1.09,1.09,0,0,0,.72,1.13,4.11,4.11,0,0,0,2.43.25A1.48,1.48,0,0,0,5.05,43a3.92,3.92,0,0,0-.53-3.21,1.64,1.64,0,0,0-1.29-.69"/><path class="cls-1" d="M67.34,60.14a2.27,2.27,0,0,0-1.2-.84,4.89,4.89,0,0,0-3.72,0A2.28,2.28,0,0,0,61,61.13a5.42,5.42,0,0,0,.16,2.16c.29,1.37.83,2.67,1.23,4"/><path class="cls-1" d="M.08,39.38A4.11,4.11,0,0,1,2,37a7,7,0,0,1,1.55-.48A6.4,6.4,0,0,0,4.79,36a1.53,1.53,0,0,0,.44-2.37,3,3,0,0,0-2.15-1A3.33,3.33,0,0,0,.5,33.71c-.14.12-.26.26-.39.39"/><path class="cls-1" d="M21.53.08a19.24,19.24,0,0,0-1.09,2.85,3,3,0,0,0-.1,1.29,1.19,1.19,0,0,0,.86.87,3.13,3.13,0,0,0,2.93-.57,2.71,2.71,0,0,0,.93-1.65A6.57,6.57,0,0,0,25.13.08"/><path class="cls-1" d="M.17,55.76a1.36,1.36,0,0,0,.66.32,2,2,0,0,1,1.4,1.69c.19,1.42.63,2.78.93,4.17.09.41.14.82.25,1.23a5.3,5.3,0,0,0,.92,1.74,16.06,16.06,0,0,0,1.86,2.34c.06,0,.1.11.19.09"/><path class="cls-1" d="M67.34,61a2.93,2.93,0,0,0-2-1.31,3.41,3.41,0,0,0-2.76.41,2.34,2.34,0,0,0-1,2.37,15.88,15.88,0,0,0,.76,2.94,13.64,13.64,0,0,1,.55,1.89"/><path class="cls-1" d="M4.19.11A27.33,27.33,0,0,0,5.76,2.55,3.34,3.34,0,0,1,6.17,5c-.06.32-.09.64-.18,1a1,1,0,0,1-1.33.72A5.33,5.33,0,0,1,3,5.9,15.91,15.91,0,0,0,1.57,5,3.7,3.7,0,0,0,.08,4.55"/><path class="cls-1" d="M17.12.11a3.87,3.87,0,0,0-2.57,1.42A1.71,1.71,0,0,0,15.17,4a.48.48,0,0,0,.18.06A3.22,3.22,0,0,0,19,1.88,1.6,1.6,0,0,0,19.1,1,1,1,0,0,0,18.17.1L18,.08"/><path class="cls-1" d="M67.34,62.36a1.64,1.64,0,0,0-.42-.84,3.16,3.16,0,0,0-3.06-1.13,2,2,0,0,0-1.67,2.33A13.49,13.49,0,0,0,63,65.63c.18.56.34,1.12.52,1.68"/><path class="cls-1" d="M40.58,10.76c-.19-.8-.59-1-1.32-.6a5.79,5.79,0,0,0-1.41,1.2,11.3,11.3,0,0,0-.82,1,2.59,2.59,0,0,0-.44,1.3.94.94,0,0,0,1.4.87,3.74,3.74,0,0,0,1.21-1,6.83,6.83,0,0,0,1.25-2.13,4.4,4.4,0,0,0,.13-.63"/><path class="cls-1" d="M.14,6.8a3.62,3.62,0,0,1,1,1.26A3,3,0,0,0,2.59,9.51a4.85,4.85,0,0,1,1.57,1,1.68,1.68,0,0,1,.55,1.74,1.11,1.11,0,0,1-1.25.7,3,3,0,0,1-1-.44,4.13,4.13,0,0,0-2.37-.59"/><path class="cls-1" d="M.23,56.48c0,.12.13.15.21.17a2,2,0,0,1,1.34,1.66c.21,1,.57,1.92.85,2.88A16.6,16.6,0,0,1,3,62.9a3.94,3.94,0,0,0,.6,1.59c.63.92,1.22,1.87,1.81,2.82"/><path class="cls-1" d="M59.66,67.34s-.08,0-.13,0a13.15,13.15,0,0,0-1.92-1.81,3.77,3.77,0,0,0-2.27-.75,11.49,11.49,0,0,0-2.8.35,6,6,0,0,1-1,.15c-.83,0-1.2.38-1.38,1.3,0,.27-.09.54-.14.81"/><path class="cls-1" d="M22.52.08a1.72,1.72,0,0,0-.73.78A6.6,6.6,0,0,0,21,3.38,1.29,1.29,0,0,0,22.28,4.7a2.1,2.1,0,0,0,2-1.11,3.54,3.54,0,0,0,.3-2.91A.76.76,0,0,0,24.2.11"/><path class="cls-1" d="M45.5.08a3.17,3.17,0,0,0-1.27.6A4.2,4.2,0,0,0,42.8,2.06a.87.87,0,0,0-.07,1,.64.64,0,0,0,.19.21A3.72,3.72,0,0,0,46.72,3,2.21,2.21,0,0,0,47.24.43a.87.87,0,0,0-.36-.35"/><path class="cls-1" d="M67.34,63.56a3.84,3.84,0,0,0-2-2.43,2.07,2.07,0,0,0-1.89.09A1.67,1.67,0,0,0,62.78,63a7.26,7.26,0,0,0,.61,2.15,22,22,0,0,1,.68,2.23"/><path class="cls-1" d="M15.08,60.2a3.23,3.23,0,0,0-1.36.39,2.2,2.2,0,0,0-1,2.16,1,1,0,0,0,.76.78,2.71,2.71,0,0,0,3-1.23,1.37,1.37,0,0,0-1.17-2.07.47.47,0,0,1-.17,0"/><path class="cls-1" d="M.08,38.24a2.88,2.88,0,0,1,1.2-1.8,3.28,3.28,0,0,1,1.2-.36,4.75,4.75,0,0,0,1.37-.43A1,1,0,0,0,4,33.86a1.91,1.91,0,0,0-2.62.29,7.48,7.48,0,0,1-.83,1,1.85,1.85,0,0,1-.39.3"/><path class="cls-1" d="M67.34,64.88c0-.25-.19-.42-.29-.63a7.16,7.16,0,0,0-.85-1.62,2.17,2.17,0,0,0-1.26-.84,1.19,1.19,0,0,0-1.47,1.38A5.78,5.78,0,0,0,64.05,65a11.64,11.64,0,0,1,.8,2.35"/><path class="cls-1" d="M.2,57.62a.2.2,0,0,0,.09.15A4.2,4.2,0,0,1,1.6,59.72a9,9,0,0,1,.73,2.58,7.42,7.42,0,0,0,1.34,3.18,10.32,10.32,0,0,1,1.12,1.86"/><path class="cls-1" d="M58.76,47.54c-.1-.37-.22-.73-.63-.87a1.75,1.75,0,0,0-1.5.12A2.85,2.85,0,0,0,55.19,49c0,.41.11.81.8.84a2.83,2.83,0,0,0,2.71-2.1,1.6,1.6,0,0,1,0-.21"/><path class="cls-1" d="M3.77.08A13.24,13.24,0,0,0,4.92,2.52a2.15,2.15,0,0,1,.13,2.14c-.31.67-.86.82-1.71.55a3.91,3.91,0,0,1-.86-.45A5.21,5.21,0,0,0,.14,4.1"/><path class="cls-1" d="M60.11.11a9.44,9.44,0,0,1,1.44,2.67,9.58,9.58,0,0,0,.8,1.68A3.32,3.32,0,0,0,64.78,6a6.34,6.34,0,0,1,2.1.6c.17.09.39.13.46.36"/><path class="cls-1" d="M59.06,67.34c-.26-.06-.39-.28-.57-.43a7.5,7.5,0,0,0-2-1.25,4.42,4.42,0,0,0-2.36-.24,10.4,10.4,0,0,0-2.2.54,2,2,0,0,0-1.31,1.35"/><path class="cls-1" d="M60.56.11a3.77,3.77,0,0,1,.71,1.23c.35.77.62,1.57,1,2.31A3.39,3.39,0,0,0,65,5.48,11.08,11.08,0,0,1,67,6a2.71,2.71,0,0,0,.3.13"/><path class="cls-1" d="M.2,59c.06.24.28.38.42.56a6.63,6.63,0,0,1,1.19,2.8A7.33,7.33,0,0,0,3,65.12a11,11,0,0,1,1.15,2,.39.39,0,0,1,.06.18"/><path class="cls-1" d="M61.07.11a10.28,10.28,0,0,1,.71,1.59,21.18,21.18,0,0,0,.92,1.92,2.86,2.86,0,0,0,2,1.38c.74.17,1.5.2,2.23.42a.91.91,0,0,1,.37.15"/><path class="cls-1" d="M61.49.11A18.25,18.25,0,0,1,62.26,2a4.32,4.32,0,0,0,1.59,2.19,3.61,3.61,0,0,0,1.27.47c.73.14,1.47.25,2.22.37"/><path class="cls-1" d="M3.35.08A13.28,13.28,0,0,1,4.1,2.72a1.75,1.75,0,0,1,0,.51c0,.46-.3.64-.81.69a6,6,0,0,1-1.4-.13A10.42,10.42,0,0,0,.43,3.68l-.35,0"/><path class="cls-1" d="M.11,60a5.69,5.69,0,0,1,.81,1.23,13.52,13.52,0,0,1,.62,1.86A8.68,8.68,0,0,0,3,65.75a5.77,5.77,0,0,1,.79,1.59"/><path class="cls-1" d="M29.6,3.8a1.31,1.31,0,0,0-1.14.84c-.34,1,.19,1.58,1.17,1.68A1.06,1.06,0,0,0,30.8,5.6a1.42,1.42,0,0,0-.42-1.51,1.51,1.51,0,0,0-.75-.29"/><path class="cls-1" d="M.11,48.92a3.3,3.3,0,0,0,.71.78,5.33,5.33,0,0,1,1.39,1.77,3.61,3.61,0,0,1,.36,1.71,1.18,1.18,0,0,1-1.41,1.07,2.34,2.34,0,0,1-1-.41"/><path class="cls-1" d="M25.82,67.31a3.68,3.68,0,0,0,.12-1c0-.35-.17-.53-.49-.57a12,12,0,0,0-3.05,0,3.88,3.88,0,0,0-.69.18,1.22,1.22,0,0,0-.82.93,2.89,2.89,0,0,0-.11.51"/><path class="cls-1" d="M62,.08c.29.75.52,1.52.87,2.25a3.27,3.27,0,0,0,2,1.8,11.57,11.57,0,0,0,1.47.27c.35.06.72.1,1.08.15"/><path class="cls-1" d="M58.28,67.32s-.07,0-.13,0A4.67,4.67,0,0,0,54.83,66,6.17,6.17,0,0,0,52,66.8a2.78,2.78,0,0,0-.57.51"/><path class="cls-1" d="M48.41,67.34A2.06,2.06,0,0,0,46,65.66a6.75,6.75,0,0,0-3.09,1.2,2.57,2.57,0,0,0-.7.48s-.07,0-.11,0"/><path class="cls-1" d="M62.39.08c.23.66.44,1.34.73,2a3,3,0,0,0,2.62,1.87c.53,0,1.07.1,1.6.17"/><path class="cls-1" d="M.08,60.8a9.64,9.64,0,0,1,1.19,2.73A4.91,4.91,0,0,0,2.06,65a9,9,0,0,1,1.32,2.32"/><path class="cls-1" d="M31.19,67.34A4.26,4.26,0,0,1,30.85,66a1.32,1.32,0,0,0-.62-1.14,1,1,0,0,0-.93,0,2.07,2.07,0,0,0-.85.65,8.79,8.79,0,0,1-.83.78,4.77,4.77,0,0,0-.9,1"/><path class="cls-1" d="M62.87.08a8,8,0,0,0,.74,2.07,2.77,2.77,0,0,0,2.14,1.41,10.45,10.45,0,0,0,1.59.09"/><path class="cls-1" d="M3.74,25.22c-.14,0-.29.05-.42.09a.79.79,0,0,0-.6.69.71.71,0,0,0,.41.78A1.58,1.58,0,0,0,5,26.48c.34-.41.22-.58-.19-.9a2,2,0,0,0-1-.36"/><path class="cls-1" d="M23.48,28.07a4,4,0,0,0,.83-2.25c0-.15,0-.31-.15-.39s-.28,0-.42.12a1.59,1.59,0,0,0-.56,1.2,4.13,4.13,0,0,0,0,.93c0,.18.06.34.25.42"/><path class="cls-1" d="M.08,61.94A14.32,14.32,0,0,0,1.93,65.6a5.8,5.8,0,0,1,1,1.74"/><path class="cls-1" d="M2.93.17a4,4,0,0,1,.09,2,.8.8,0,0,1-.42.54,4,4,0,0,1-1.71.45,6.27,6.27,0,0,1-.75,0"/><path class="cls-1" d="M63.47.08a10.21,10.21,0,0,0,.42,1.29,2.8,2.8,0,0,0,2.36,1.77c.36,0,.73,0,1.09.09"/><path class="cls-1" d="M.11,49.94c.1.26.38.36.57.53a3.48,3.48,0,0,1,1,1.48,1.71,1.71,0,0,1,0,1,.65.65,0,0,1-.65.41,1.33,1.33,0,0,1-1-.47"/><path class="cls-1" d="M47.9,67.31a1.77,1.77,0,0,0-1.63-1.08,3.3,3.3,0,0,0-1.5.38,6.41,6.41,0,0,0-1.19.7c-.07,0-.13,0-.18,0"/><path class="cls-1" d="M19.79,67.34a1.26,1.26,0,0,0-1.23-.78,5.71,5.71,0,0,0-2.28.43,2.12,2.12,0,0,0-.72.32c-.08.06-.17,0-.24,0"/><path class="cls-1" d="M57.14,67.34a.69.69,0,0,1-.25,0,4.46,4.46,0,0,0-3.63-.18c-.17.06-.29.24-.5.21"/><path class="cls-1" d="M64.07.08a4.27,4.27,0,0,0,.59,1.53,2.41,2.41,0,0,0,2.11,1.07,1.22,1.22,0,0,0,.57,0"/><path class="cls-1" d="M25.13,67.34c-.21-.89-.83-1.18-1.74-1.1a2.08,2.08,0,0,0-1.87,1.07s-.05,0-.08,0"/><path class="cls-1" d="M.11,63.26A6.13,6.13,0,0,0,1,65.06c.35.49.77.92,1.08,1.44a2.35,2.35,0,0,1,.37.84"/><path class="cls-1" d="M2.45.11A1.77,1.77,0,0,1,1.06,2.6a4.58,4.58,0,0,1-1,.09"/><path class="cls-1" d="M58.22,17.42c.48-.29.5-.52.12-.93a1.13,1.13,0,0,0-.61-.38.4.4,0,0,0-.5.62,1.24,1.24,0,0,0,1,.69"/><path class="cls-1" d="M37.94,13.46a1.45,1.45,0,0,0,.87-.81.55.55,0,0,0,0-.24c0-.29-.1-.41-.38-.3a1.24,1.24,0,0,0-.78.9.34.34,0,0,0,.21.45"/><path class="cls-1" d="M23.54,48a.92.92,0,0,0-.75.63.45.45,0,0,0,.12.57.52.52,0,0,0,.56,0,.91.91,0,0,0,.4-.44c.2-.47.05-.63-.3-.75"/><path class="cls-1" d="M64.85.08a2.2,2.2,0,0,0,2.49,2"/><path class="cls-1" d="M67.34,46.16a2.87,2.87,0,0,0-.58,1.14A1.8,1.8,0,0,0,67,48.56c.1.18.24.34.33.54"/><path class="cls-1" d="M1.91.11a1.28,1.28,0,0,1-.63,1.65,2.88,2.88,0,0,1-1.2.33"/><path class="cls-1" d="M.08,64.58A4.25,4.25,0,0,0,1,65.84a4.76,4.76,0,0,1,.92,1.38s0,.08,0,.12"/><path class="cls-1" d="M67.34,42.14A8.87,8.87,0,0,1,67,43.67a3,3,0,0,0-.07.51.63.63,0,0,0,.38.63"/><path class="cls-1" d="M6.14.08A7,7,0,0,0,7.48.84,4.35,4.35,0,0,0,8.87,1c.18,0,.19-.08.18-.24A3.88,3.88,0,0,0,8.87.08"/><path class="cls-1" d="M67.34,39c0,.16-.08.29-.13.41a6.51,6.51,0,0,1-1,1.9"/><path class="cls-1" d="M24.38,67.34s-.08,0-.13,0a1.32,1.32,0,0,0-1.79-.06c-.06,0-.1.11-.18.09"/><path class="cls-1" d="M47.12,67.34c-.17,0-.23-.14-.36-.19a1.63,1.63,0,0,0-1.35.1.66.66,0,0,1-.33.09"/><path class="cls-1" d="M29.84,67.32c-.09.05-.13,0-.18-.07a1.07,1.07,0,0,0-1.33-.15c-.15.08-.28.23-.47.22"/><path class="cls-1" d="M18.62,67.34a1.38,1.38,0,0,1-.49-.1,1.08,1.08,0,0,0-.83,0,2,2,0,0,1-.72.1"/><path class="cls-1" d="M67.34,66.53c-.49-.23-.76,0-.81.51,0,.1,0,.2,0,.3"/><path class="cls-1" d="M.89.08A.66.66,0,0,1,.08,1"/><path class="cls-1" d="M66.53.08c.09.56.29.78.81.87"/><path class="cls-1" d="M.11,66.44c0,.12.15.13.24.18a1,1,0,0,1,.54.72"/><path class="cls-1" d="M25.76,22.43a5.73,5.73,0,0,0-3,1.42,4,4,0,0,0-1.18,2.09,9.77,9.77,0,0,0-.24,4A2.69,2.69,0,0,0,22.93,32a2,2,0,0,1,1,.83,2.1,2.1,0,0,1,0,1.8,4.23,4.23,0,0,1-1.44,1.8,19.65,19.65,0,0,0-2.17,2,5.06,5.06,0,0,0-.9,1.41,2.69,2.69,0,0,0,.33,2.46,3.37,3.37,0,0,1,.55,1.74,1.45,1.45,0,0,1-.39,1c-.26.27-.57.49-.85.75a1.46,1.46,0,0,0-.47.75c-.12.53.21.84.6,1.11a1.15,1.15,0,0,0,1.52-.18,5.63,5.63,0,0,1,4.71-1.77,1.88,1.88,0,0,1,1.41.9,1.16,1.16,0,0,1-.12,1.26c-.45.74-1,1.41-1.46,2.16a2.55,2.55,0,0,0-.39,1,1.45,1.45,0,0,0,.62,1.35,5.3,5.3,0,0,0,1.45.76,20.62,20.62,0,0,1,2.94,1.55,11,11,0,0,0,1.08.56,1.67,1.67,0,0,0,1.92-.47,4.82,4.82,0,0,0,.71-1.32c.22-.56.44-1.11.64-1.68a2.19,2.19,0,0,0-1-2.88,23.85,23.85,0,0,0-2.51-1.3,4.68,4.68,0,0,1-1-.59,1.24,1.24,0,0,1-.3-1.44,12.46,12.46,0,0,1,1-2,3.3,3.3,0,0,0,.34-2,9.56,9.56,0,0,0-.19-1.41,5.22,5.22,0,0,0-.91-1.71,11.65,11.65,0,0,1-1.86-3.87A5.74,5.74,0,0,0,26.2,32a2.08,2.08,0,0,1-.63-1.62,11.37,11.37,0,0,1,.25-2.79,17.92,17.92,0,0,1,.86-2.46,5.26,5.26,0,0,0,.39-1.56,1.29,1.29,0,0,0-.23-.87.5.5,0,0,0-.46-.24l-.59,0"/><path class="cls-1" d="M31.91,22.28a3.65,3.65,0,0,0-1.26.36,2.62,2.62,0,0,0-1.11,1.26,15.22,15.22,0,0,0-1.08,3.15,3,3,0,0,0,.36,2.19,5.76,5.76,0,0,0,3.47,2.7,5.88,5.88,0,0,0,2.31.29A1.68,1.68,0,0,0,36,31.37,3.26,3.26,0,0,0,36.37,30a6.27,6.27,0,0,1,.48-1.95,1.28,1.28,0,0,0-.42-1.74,9.74,9.74,0,0,0-.78-.63,2.94,2.94,0,0,1-.83-1.05c-.2-.39-.42-.76-.63-1.14a2.32,2.32,0,0,0-2.25-1.23"/><path class="cls-1" d="M2.72,40.85a.78.78,0,0,0-.34,1.23A.55.55,0,0,0,3.29,42a.93.93,0,0,0,0-.84.53.53,0,0,0-.59-.3"/><path class="cls-1" d="M38.06,41.15a1.63,1.63,0,0,0-.78.21,1.14,1.14,0,0,0-.36,1.32c.65,1.69,1.3,3.38,2,5.07a26.78,26.78,0,0,0,1.25,2.37c.17.31.31.63.49.93a8.71,8.71,0,0,0,1,1.41,19.85,19.85,0,0,1,1.61,2.16c.5.76,1.13,1.41,1.68,2.13a3.16,3.16,0,0,1,.7,1.68,2.73,2.73,0,0,1-.24,1.26,6.57,6.57,0,0,1-1.06,1.5,3,3,0,0,0-.62,1.14c-.09.43-.1.86.26,1.11a1.88,1.88,0,0,0,.75.3,9.3,9.3,0,0,0,1.39.11c.71,0,1.41.09,2.13.07a1.24,1.24,0,0,0,1.34-1c.14-.39.23-.79.37-1.17a11.58,11.58,0,0,1,1.14-2.07,8.66,8.66,0,0,0,1.13-2.52A20.14,20.14,0,0,0,52.7,54a7.88,7.88,0,0,0-.06-1.68,2.08,2.08,0,0,0-1.57-1.74c-.52-.17-1.06-.3-1.58-.49a4.53,4.53,0,0,1-1.38-.8c-1.11-.9-2.32-1.63-3.49-2.43a10.69,10.69,0,0,1-2.91-3,9.33,9.33,0,0,0-1.26-1.68,4.19,4.19,0,0,0-2-1c-.12,0-.26,0-.38,0"/><path class="cls-1" d="M31.79,21.92a4.75,4.75,0,0,0-1.42.47,2.6,2.6,0,0,0-1.13,1.3,24,24,0,0,0-1.09,3A4.7,4.7,0,0,0,28,28.37a2.44,2.44,0,0,0,.41,1,7.18,7.18,0,0,0,2.49,2.7,5.79,5.79,0,0,0,2.16.63c.45.07.92.13,1.38.17a2.17,2.17,0,0,0,2.06-.71,2.82,2.82,0,0,0,.42-1.38,5.63,5.63,0,0,1,1-2.65,1.7,1.7,0,0,0,.24-.53,1.08,1.08,0,0,0-.26-1.15,4.52,4.52,0,0,0-1.3-.88A3.28,3.28,0,0,1,35,24a4.87,4.87,0,0,0-.8-1.35,2.49,2.49,0,0,0-1.75-.72c-.2,0-.41,0-.62,0"/><path class="cls-1" d="M2.93,39.8c-1,.2-1.31.94-1.53,1.77A1.3,1.3,0,0,0,1.75,43a1.65,1.65,0,0,0,2.49-.36,2.5,2.5,0,0,0-.3-2.43,1.21,1.21,0,0,0-1-.42"/><path class="cls-1" d="M47,41.78a1.48,1.48,0,0,0-1,.87.86.86,0,0,0,.09,1,2.2,2.2,0,0,0,.73.56,7.65,7.65,0,0,0,1.79.64.88.88,0,0,0,.28,0c.5-.09.72-.44.44-.88a11.34,11.34,0,0,0-1.61-2,.84.84,0,0,0-.66-.24"/><path class="cls-1" d="M56.27,21.74c-.57,0-1.15.07-1.71.12A16.42,16.42,0,0,0,52,22.1a2,2,0,0,0-1,.54A.92.92,0,0,0,51,24.08a3.7,3.7,0,0,0,.65.6c.29.23.55.49.82.75a.72.72,0,0,1,0,1.05,1.2,1.2,0,0,1-.26.24,4.68,4.68,0,0,0-1.44,1.83c-.76,1.59-1.62,3.13-2.52,4.65a5.61,5.61,0,0,0-.6,1.23c-.31,1-.11,1.06.72,1.34a7.82,7.82,0,0,0,2.16.3,10.16,10.16,0,0,0,4.32-.71,3.48,3.48,0,0,0,2.22-2.58,9.14,9.14,0,0,0,.13-3.72,4.88,4.88,0,0,1,0-2.28,1.83,1.83,0,0,1,.15-.45,3.31,3.31,0,0,0,.18-2.58c-.16-.56-.39-1.09-.6-1.62-.12-.32-.31-.46-.63-.39"/><path class="cls-1" d="M12.32,42.35a2.74,2.74,0,0,0-1.83,1,1.67,1.67,0,0,0-.4,1.08,1,1,0,0,0,1.06,1.08A3,3,0,0,0,13,44.8a2.35,2.35,0,0,0,.73-.8,1,1,0,0,0-.39-1.44,1.85,1.85,0,0,0-1-.21"/><path class="cls-1" d="M38.57,42.38c-.64.09-.84.65-.63,1.26.3.86.54,1.74.8,2.61a6.73,6.73,0,0,0,1.71,3,5.13,5.13,0,0,1,1.06,1.65,16.77,16.77,0,0,0,1.34,2.37,16.76,16.76,0,0,0,2.37,2.95,3.22,3.22,0,0,1,1,2.45c0,.23,0,.46,0,.69A3.25,3.25,0,0,1,45.34,61a5.14,5.14,0,0,0-.45.75A.85.85,0,0,0,45.37,63a3.46,3.46,0,0,0,1.86,0A2.67,2.67,0,0,0,49,62c.8-1.13,1.66-2.22,2.38-3.4A5.89,5.89,0,0,0,52,56.51a18.94,18.94,0,0,0,.3-3A2.31,2.31,0,0,0,50.5,50.9c-.5-.15-1-.25-1.52-.43a5.76,5.76,0,0,1-1.71-1.08c-.93-.74-2-1.36-2.89-2.08a21.87,21.87,0,0,1-3.15-3,11.2,11.2,0,0,0-1.52-1.48,2.19,2.19,0,0,0-1.11-.44"/><path class="cls-1" d="M39.47,44.18a.57.57,0,0,0-.37.69c.06.47.11.94.21,1.41a3.43,3.43,0,0,0,1.38,2.1c.25.18.49.37.73.56a2.32,2.32,0,0,1,.85,1.48A7.25,7.25,0,0,0,43.34,53a11.8,11.8,0,0,0,2.18,2.7,4.17,4.17,0,0,1,1.29,2.79,12.33,12.33,0,0,1,.12,2.1A1.68,1.68,0,0,0,47,61a.35.35,0,0,0,.38.24,2.57,2.57,0,0,0,1.74-.67,7.21,7.21,0,0,0,2-2.48,7.75,7.75,0,0,0,.69-2.67,12.64,12.64,0,0,0,0-2,2,2,0,0,0-1.62-2c-.53-.16-1.06-.34-1.6-.49A7.35,7.35,0,0,1,46.75,50a20.07,20.07,0,0,1-4.11-3.47,12.26,12.26,0,0,0-2-1.9,2.23,2.23,0,0,0-1.1-.45"/><path class="cls-1" d="M37.67,21.5l-.16,0a1.08,1.08,0,0,0-.87,1.62,2.15,2.15,0,0,0,1.54,1.17,3.6,3.6,0,0,0,2.33-.25.87.87,0,0,0,.36-1.49,2.67,2.67,0,0,0-1.56-.9,5.49,5.49,0,0,0-1.61-.18"/><path class="cls-1" d="M26.81,21.5a10.32,10.32,0,0,0-3.06,1.17,5,5,0,0,0-2.5,3.42A11.31,11.31,0,0,0,21,30.65a3.25,3.25,0,0,0,1.08,1.89,6.85,6.85,0,0,1,.66.66,1.57,1.57,0,0,1-.13,2.07,7.49,7.49,0,0,1-.69.69,19,19,0,0,0-2.69,3,2.88,2.88,0,0,0-.7,2,9.66,9.66,0,0,0,.37,1.5,2.67,2.67,0,0,1,.14,1.05,1.8,1.8,0,0,1-.77,1.14,2.44,2.44,0,0,0-1,1.23,1.72,1.72,0,0,0,.23,1.62A3.76,3.76,0,0,0,20,49.13a1.33,1.33,0,0,0,1.31-.63c.21-.28.4-.57.61-.84a2.78,2.78,0,0,1,2.13-1.08h.38a1,1,0,0,1,1.06,1.29,4.6,4.6,0,0,1-1.15,2.19,4.13,4.13,0,0,0-.47.63,1.17,1.17,0,0,0,.21,1.56,3.87,3.87,0,0,0,1.62,1,17.89,17.89,0,0,1,4.2,2.14,7.18,7.18,0,0,0,1.34.72,1.54,1.54,0,0,0,1.71-.3,3.17,3.17,0,0,0,.88-1.56,16.09,16.09,0,0,1,.87-2.31A3.7,3.7,0,0,0,35.1,50a2.61,2.61,0,0,0-1.45-1.86c-.59-.36-1.23-.6-1.81-1a2.41,2.41,0,0,1-.87-.81,1.7,1.7,0,0,1,.1-1.74A3,3,0,0,0,31.48,43a13.57,13.57,0,0,0-.8-4.14,13.93,13.93,0,0,0-1.12-2.13A15,15,0,0,1,28.28,34a10.53,10.53,0,0,0-1.41-2.7,4.06,4.06,0,0,1-.76-2.91,11.19,11.19,0,0,1,.94-3.21,8.58,8.58,0,0,0,.66-2.34,1.83,1.83,0,0,0,0-.66c-.13-.44-.27-.74-.86-.69"/><path class="cls-1" d="M2.66,19.31a1.89,1.89,0,0,0-.72.21,1.05,1.05,0,0,0-.46,1.29,6.22,6.22,0,0,0,.25.84,2.84,2.84,0,0,1-.06,2.16c-.21.51-.41,1-.58,1.56a2.14,2.14,0,0,0,.75,2.49A4.28,4.28,0,0,0,5,28.67a6.82,6.82,0,0,0,3.07-1,2,2,0,0,0,.65-.87,4.22,4.22,0,0,0,.39-1.5A1.62,1.62,0,0,0,8,23.63c-.61-.26-1.24-.48-1.86-.75a2.72,2.72,0,0,1-1.62-1.8,4.65,4.65,0,0,0-.45-1,1.37,1.37,0,0,0-1.34-.75"/><path class="cls-1" d="M63.77,46.76c-.63.23-.59.84-.33,1.29a1,1,0,0,0,.51.45c.39.13.54.1.68-.27a1.41,1.41,0,0,0-.3-1.35.71.71,0,0,0-.53-.12"/><path class="cls-1" d="M40.25,18c-.09.06-.23.07-.16.24a.23.23,0,0,0,.19.14.21.21,0,0,0,.23-.11c.1-.13,0-.23-.23-.27"/><path class="cls-1" d="M13.49,48a1.78,1.78,0,0,0-1.18,1,4.16,4.16,0,0,0-.44,3,1.33,1.33,0,0,0,1.47,1.17,10.6,10.6,0,0,0,2.75-.37c1-.27,1.09-.84.9-1.67a2.72,2.72,0,0,0-.59-1,9.26,9.26,0,0,0-1.6-1.65A1.74,1.74,0,0,0,13.52,48"/><path class="cls-1" d="M28.88,48.17a3.49,3.49,0,0,0-2.64,1.65,2.69,2.69,0,0,0-.48,1.11,1.34,1.34,0,0,0,.83,1.41c.74.4,1.53.67,2.26,1.08.44.24.85.54,1.31.75a6.86,6.86,0,0,0,1,.34,1,1,0,0,0,1-.2,4,4,0,0,0,1.52-3.47,1.88,1.88,0,0,0-1-1.41,7.75,7.75,0,0,0-3.42-1.23,3.16,3.16,0,0,0-.32,0"/><path class="cls-1" d="M32.6,17.21a1.66,1.66,0,0,0-.87.45.31.31,0,0,0,0,.48,1.2,1.2,0,0,0,1.62-.09.48.48,0,0,0-.31-.81,1.2,1.2,0,0,0-.38,0"/><path class="cls-1" d="M8.93,17.06c-.34.06-.65.14-.76.54a1.42,1.42,0,0,0,.19,1.2,2,2,0,0,0,2.3.66A.75.75,0,0,0,11,18.2a2.72,2.72,0,0,0-2-1.14"/><path class="cls-1" d="M14,49.1a1.85,1.85,0,0,0-1.41,1.83,2.72,2.72,0,0,0,0,.57,1.13,1.13,0,0,0,1.17,1,3.36,3.36,0,0,0,1.56-.19,1.13,1.13,0,0,0,.6-1.75,2.72,2.72,0,0,0-1.89-1.41"/><path class="cls-1" d="M28.82,49.43a2.88,2.88,0,0,0-1.18.38A1.33,1.33,0,0,0,27,51a.77.77,0,0,0,.29.6,4.83,4.83,0,0,0,1.51.74,8.26,8.26,0,0,1,1.29.66,2.86,2.86,0,0,0,1.05.37,1,1,0,0,0,.83-.25,2.09,2.09,0,0,0,.6-2.06,1.8,1.8,0,0,0-1-1,5.08,5.08,0,0,0-2.67-.57"/><path class="cls-1" d="M19.16,16.85a1.89,1.89,0,0,0-.75.24,1.46,1.46,0,0,0-.56,1.41,7.79,7.79,0,0,1,0,1.08.45.45,0,0,1-.2.33,6.9,6.9,0,0,1-1.57.87,5,5,0,0,0-2.52,2.49c-.38.75-.83,1.46-1.19,2.22a6.91,6.91,0,0,0-.74,3.15A20.24,20.24,0,0,1,11.32,32a4.92,4.92,0,0,0,.28,2.76,1.15,1.15,0,0,0,1.19.75,4.49,4.49,0,0,0,2.4-.87,1.69,1.69,0,0,0,.57-1.62,18.24,18.24,0,0,1-.12-2.22,4.76,4.76,0,0,1,.76-2.07c.43-.74,1-1.41,1.34-2.19a9.67,9.67,0,0,0,.82-3,10.21,10.21,0,0,0-.09-2.76,1,1,0,0,1,.32-.94c.39-.38.87-.65,1.27-1s.64-.51.74-.93a.41.41,0,0,0-.14-.52,2.55,2.55,0,0,0-1.47-.5"/><path class="cls-1" d="M40.49,16.82a2.07,2.07,0,0,0-1.53,1,1,1,0,0,0,.41,1.44A2.1,2.1,0,0,0,41.6,19a1.23,1.23,0,0,0,.41-1.2,1.25,1.25,0,0,0-.95-.93,1.66,1.66,0,0,0-.54-.06"/><path class="cls-1" d="M14.33,50.48c-.39.14-.52.29-.46.54s.21.32.61.3a.41.41,0,0,0,.06-.81.38.38,0,0,0-.18,0"/><path class="cls-1" d="M44.39,50.72a.77.77,0,0,0-.58.93,3,3,0,0,0,.31,1A7.29,7.29,0,0,0,46,55.13a3.93,3.93,0,0,1,1.23,2.25,9.5,9.5,0,0,0,.41,1.38,1.1,1.1,0,0,0,1.2.83,2.07,2.07,0,0,0,1-.53,4.63,4.63,0,0,0,1.52-3.18,7.71,7.71,0,0,0,.07-2.25,1.93,1.93,0,0,0-1.51-1.71c-.8-.23-1.64-.32-2.46-.48a13.68,13.68,0,0,1-2.09-.55,3.57,3.57,0,0,0-.9-.17"/><path class="cls-1" d="M8.81,50.78a1.54,1.54,0,0,0-.84.54.62.62,0,0,0,0,.84,1.83,1.83,0,0,0,.92.51.76.76,0,0,0,1-.72,1.06,1.06,0,0,0-1.07-1.17"/><path class="cls-1" d="M33,16.37a8.23,8.23,0,0,0-2.2.47,2.14,2.14,0,0,0-1,.67,1.07,1.07,0,0,0,.15,1.65,2,2,0,0,0,1,.23,9.29,9.29,0,0,0,2.82-.31A1.73,1.73,0,0,0,34.52,17a1.1,1.1,0,0,0-.7-.53,2.58,2.58,0,0,0-.83-.09"/><path class="cls-1" d="M34,15.77c-.53,0-1,.07-1.57.15-.86.14-1.75.19-2.61.39a1.75,1.75,0,0,0-1.34,1.41,4.26,4.26,0,0,0-.13,1.59.91.91,0,0,0,1,.87A17.58,17.58,0,0,0,31.84,20a13.79,13.79,0,0,0,1.71-.23A2,2,0,0,0,35,18.92a2.9,2.9,0,0,0,.35-1.05,6,6,0,0,0,0-1.47.53.53,0,0,0-.39-.49,4.92,4.92,0,0,0-1-.14"/><path class="cls-1" d="M54.38,27.83c-.42.05-.85.07-1.26.15a2.69,2.69,0,0,0-1.69,1.14,18.64,18.64,0,0,0-1.31,2.19c-.25.46-.55.88-.78,1.35a2.8,2.8,0,0,0-.23,1.56.82.82,0,0,0,.31.54,2.58,2.58,0,0,0,1.66.56,7.79,7.79,0,0,0,4.16-1,3.31,3.31,0,0,0,1.52-2.21,4.61,4.61,0,0,0-.1-2.82,1.77,1.77,0,0,0-1.93-1.41h-.32"/><path class="cls-1" d="M57.32,52.31A3.08,3.08,0,0,0,54.68,55a17.19,17.19,0,0,0-.34,2.58,2.66,2.66,0,0,0,.34,1.52,1.17,1.17,0,0,0,1,.6,3,3,0,0,0,2.9-1.37,2.19,2.19,0,0,0,.33-1.29c0-.94-.09-1.88-.14-2.82a4.36,4.36,0,0,0-.13-1,1.08,1.08,0,0,0-1.28-1"/><path class="cls-1" d="M56.9,53.15a2.27,2.27,0,0,0-1.63,1.53,6.67,6.67,0,0,0-.4,3,1.31,1.31,0,0,0,2,1,2.26,2.26,0,0,0,1.32-1.94,7.91,7.91,0,0,0-.11-2.7,1,1,0,0,0-1.11-.9"/><path class="cls-1" d="M48.59,53.36a.86.86,0,0,0-.72.75.33.33,0,0,0,0,.24,12.47,12.47,0,0,1,.67,1.89,2.63,2.63,0,0,0,.24.51c.25.42.65.53,1,0a2.6,2.6,0,0,0,.31-1A4.45,4.45,0,0,0,50,54.29a1.09,1.09,0,0,0-1.18-.93h-.2"/><path class="cls-1" d="M31.88,22.73a2.31,2.31,0,0,0-1.56.66,3.82,3.82,0,0,0-.79,1.35,9.51,9.51,0,0,0-.66,2.58,2.8,2.8,0,0,0,.55,2,5.34,5.34,0,0,0,4.64,2.09,1.29,1.29,0,0,0,1.34-1.4,8.26,8.26,0,0,1,.35-1.86,1.7,1.7,0,0,0-.33-1.75,11,11,0,0,1-1.33-2.15,3,3,0,0,0-1-1.21,2.57,2.57,0,0,0-1.2-.35"/><path class="cls-1" d="M14.51,54.26a5.63,5.63,0,0,0-3,1.56A5.87,5.87,0,0,0,10,57.44a4.88,4.88,0,0,0-.54,1.8,13,13,0,0,0,.16,2.25c0,.62,0,1.24.14,1.86a2.41,2.41,0,0,0,2,2.19A7.48,7.48,0,0,0,16,65.17,5.43,5.43,0,0,0,18,64a4.81,4.81,0,0,0,1.5-3.12A4,4,0,0,0,18,57a5.07,5.07,0,0,1-1.33-1.44,4.61,4.61,0,0,0-.36-.54,2,2,0,0,0-1.79-.75"/><path class="cls-1" d="M56.6,54.83a.86.86,0,0,0-.69.54,2.45,2.45,0,0,0-.22,1.68.61.61,0,0,0,.46.47.56.56,0,0,0,.54-.2,2.25,2.25,0,0,0,.39-2.1c-.1-.2-.2-.38-.45-.39"/><path class="cls-1" d="M14.51,54.92a2.48,2.48,0,0,0-1.44.67c-.7.62-1.47,1.14-2.2,1.72a2.93,2.93,0,0,0-1,2.14,11.61,11.61,0,0,0,.19,1.95c.05.55.05,1.1.15,1.65a2.37,2.37,0,0,0,2.09,2.13A6.37,6.37,0,0,0,16,64.79a4.58,4.58,0,0,0,2.59-2.26,3.86,3.86,0,0,0,.13-3.74,3.21,3.21,0,0,0-.92-1,5.56,5.56,0,0,1-1.3-1.26c-.19-.31-.37-.62-.59-.91a1.68,1.68,0,0,0-1.32-.65"/><path class="cls-1" d="M56.6,14.93a1.11,1.11,0,0,0-.51.21.81.81,0,0,0-.28.9,9.12,9.12,0,0,0,.49,1.32,21.2,21.2,0,0,1,1,2.31.32.32,0,0,0,.53.2,3.15,3.15,0,0,0,.48-.41c.47-.43,1.06-.69,1.51-1.14a2.12,2.12,0,0,0,.3-.36,1,1,0,0,0-.14-1.31,4.52,4.52,0,0,0-3.31-1.72"/><path class="cls-1" d="M4.43,55.1a2.29,2.29,0,0,1-.69,0c-.21,0-.32.07-.34.28a15.82,15.82,0,0,0-.11,3.15,14.22,14.22,0,0,0,.42,1.8,10.75,10.75,0,0,0,.81,2.46,2.05,2.05,0,0,0,.71.81.83.83,0,0,0,.91.07,2.58,2.58,0,0,0,1.28-1.51,3.79,3.79,0,0,0,.28-1.56c0-.89.11-1.78.08-2.67a3.76,3.76,0,0,0-.18-1.2,2.36,2.36,0,0,0-2.16-1.59c-.32,0-.65,0-1-.06"/><path class="cls-1" d="M5.18,55.73c-1.1.17-1.38,1-1.44,1.86a7.33,7.33,0,0,0,.06,1.62,5.94,5.94,0,0,0,.3.9A8.92,8.92,0,0,0,4.81,62a1.43,1.43,0,0,0,.49.57.87.87,0,0,0,1.07,0,2.16,2.16,0,0,0,.9-1.73,22.28,22.28,0,0,0,.12-2.58A3.69,3.69,0,0,0,7.19,57a1.94,1.94,0,0,0-1.87-1.26H5.21"/><path class="cls-1" d="M55.61,13.7a1.59,1.59,0,0,0-.57.18A1.2,1.2,0,0,0,54.53,15a5.48,5.48,0,0,0,.23,1.65,13.24,13.24,0,0,1,.37,1.77,1.94,1.94,0,0,1-1.27,2.12,21.22,21.22,0,0,1-2.6.7c-.48.12-.93.29-1.41.39a2.58,2.58,0,0,1-2.14-.51,5,5,0,0,0-1.22-.75,1.51,1.51,0,0,0-1.59.24,3,3,0,0,0-.77.93,5.5,5.5,0,0,1-1.66,1.83c-.83.61-.85.62-1,1.74a7.86,7.86,0,0,1-1.14,3A15.58,15.58,0,0,0,39.23,30a2.37,2.37,0,0,0-.21,1.2,1.71,1.71,0,0,0,.74,1.08,4.23,4.23,0,0,0,1.3.67,5.52,5.52,0,0,1,2.52,2c.65.84,1.23,1.73,1.94,2.52a5.59,5.59,0,0,0,2,1.47.79.79,0,0,0,.75-.13,6.52,6.52,0,0,0,.82-.59,3.41,3.41,0,0,1,1.79-.69,7.32,7.32,0,0,1,2.38.11c1,.23,1.07.72,1,1.51s-.29,1.31-.36,2a1.94,1.94,0,0,0,.28,1.49,1.51,1.51,0,0,0,1.76.42,8.66,8.66,0,0,0,2.17-1.19,3.52,3.52,0,0,1,1.49-.66,6.1,6.1,0,0,1,1.54,0,5.28,5.28,0,0,0,1.86.1,3.27,3.27,0,0,0,1.92-1.08,1.58,1.58,0,0,0-.06-2.13,4.69,4.69,0,0,0-1.45-1.1,21.27,21.27,0,0,1-2.94-1.93,7.17,7.17,0,0,0-1.29-.81,1.89,1.89,0,0,1-1.08-1.68c-.06-.53.07-1.06,0-1.59a8.43,8.43,0,0,1,.7-3.73,7.37,7.37,0,0,0,.45-3.2,8.05,8.05,0,0,1,.1-2.4,3.14,3.14,0,0,1,1.26-1.84A14.69,14.69,0,0,1,62.33,19a2.33,2.33,0,0,0,.86-.66,1,1,0,0,0-.27-1.56c-.66-.41-1.32-.83-2-1.2a21.87,21.87,0,0,0-2.67-1.29,6.51,6.51,0,0,0-2.6-.57"/><path class="cls-1" d="M14.39,55.82a2.14,2.14,0,0,0-1.24.69,6.12,6.12,0,0,1-1.52,1.11A2.17,2.17,0,0,0,10.43,60c.08.92.27,1.83.36,2.76a2.14,2.14,0,0,0,2.07,2.06A5.21,5.21,0,0,0,17,63.73a3.91,3.91,0,0,0,1.49-3.14,2.61,2.61,0,0,0-1.22-2.34,5.33,5.33,0,0,1-1.53-1.5,3.23,3.23,0,0,0-.38-.45,1.43,1.43,0,0,0-.93-.48"/><path class="cls-1" d="M5.33,56.42c-.83.19-1,.73-1.12,1.47a5.39,5.39,0,0,0,.67,2.91,2,2,0,0,0,.44.57.74.74,0,0,0,1.23-.21A4.15,4.15,0,0,0,7,59.54a5.52,5.52,0,0,0,0-1.77,1.55,1.55,0,0,0-1.58-1.35"/><path class="cls-1" d="M47.63,13c-.33.23-.4.53-.18.78a.55.55,0,0,0,.6.18.62.62,0,0,0,.11-.69.45.45,0,0,0-.5-.27"/><path class="cls-1" d="M48.11,11.54A3.52,3.52,0,0,0,47,12a1.42,1.42,0,0,0-.54,2,2.2,2.2,0,0,0,1.24,1.16A1.23,1.23,0,0,0,49.41,14a3.72,3.72,0,0,0-.19-1.65c-.18-.56-.44-.84-1.08-.78"/><path class="cls-1" d="M10.07,10.76c-.23.06-.41.18-.36.45a.39.39,0,0,0,.42.36.41.41,0,0,0,.39-.42c0-.26-.12-.37-.42-.39"/><path class="cls-1" d="M5.57,57.38a.94.94,0,0,0-.7,1,2.08,2.08,0,0,0,.48,1.47c.3.34.59.33.78-.06a2,2,0,0,0,.07-1.86,1,1,0,0,0-.6-.54"/><path class="cls-1" d="M31.67,23.18a2.34,2.34,0,0,0-1.77,1.65,8.27,8.27,0,0,0-.54,2.7,2.46,2.46,0,0,0,.75,1.85,3.38,3.38,0,0,0,2.54,1.18,1.58,1.58,0,0,0,1.63-1.11c.16-.5.33-1,.45-1.5a2.52,2.52,0,0,0-.1-1.44,11.23,11.23,0,0,0-1.2-2.37,2,2,0,0,0-1.73-1"/><path class="cls-1" d="M14,57.83a16.77,16.77,0,0,0-1.83.69,1.41,1.41,0,0,0-.87,1.26,2.73,2.73,0,0,0,.09.9,3.34,3.34,0,0,1,.12.84,7.21,7.21,0,0,0,0,1.14,1.79,1.79,0,0,0,1.8,1.61,4.14,4.14,0,0,0,3.23-.95,3.09,3.09,0,0,0,.93-3.21,2,2,0,0,0-1.13-1.21,9,9,0,0,1-1.14-.71,1.76,1.76,0,0,0-1.2-.36"/><path class="cls-1" d="M26,57.92a7.71,7.71,0,0,0-3,1.39,3.55,3.55,0,0,0-1.41,2.12,10.2,10.2,0,0,0-.34,2.46.93.93,0,0,0,.72,1,3.56,3.56,0,0,0,1.41.14,4.63,4.63,0,0,0,1.95-.39c.61-.3,1.24-.54,1.87-.8a2.2,2.2,0,0,0,1.22-1.12,3.36,3.36,0,0,0,.28-1.1,4.29,4.29,0,0,0-.29-2.19,2.36,2.36,0,0,0-2.38-1.5"/><path class="cls-1" d="M25.85,58.76a6.22,6.22,0,0,0-2.55,1.15,3.73,3.73,0,0,0-1.51,3.26,1.32,1.32,0,0,0,.79,1.2,2.2,2.2,0,0,0,1.22.12,6.65,6.65,0,0,0,2.82-1.44,3.17,3.17,0,0,0,1.17-1.83,1.83,1.83,0,0,0-1.91-2.46"/><path class="cls-1" d="M39.77,8.18a2.08,2.08,0,0,0-1.51.9,26.13,26.13,0,0,1-1.89,2.34,3.77,3.77,0,0,0-.84,1.71A2.64,2.64,0,0,1,34.33,15a4.73,4.73,0,0,1-1.74.51,12.34,12.34,0,0,1-2.85,0,3.41,3.41,0,0,0-.84,0c-.6.09-.84.55-1,1a11.73,11.73,0,0,0-.48,2.19,3.24,3.24,0,0,1-.65,1.62,3.79,3.79,0,0,1-1.24.86,17.89,17.89,0,0,0-2.42,1.36,5.84,5.84,0,0,0-2.17,3.45,16.82,16.82,0,0,0-.45,3.54,7.93,7.93,0,0,0,.27,2.52,2.68,2.68,0,0,0,.43.92,2,2,0,0,1,0,2.5,21.64,21.64,0,0,1-2.37,3.09,5.12,5.12,0,0,0-.72,1,2.44,2.44,0,0,0-.3,1.47,13.07,13.07,0,0,1,.08,1.53,2.37,2.37,0,0,1-.57,1.35,7,7,0,0,0-.77,1.17,2.53,2.53,0,0,0,.23,2.49,6.22,6.22,0,0,0,1.75,1.79,28,28,0,0,1,3.62,3,4.53,4.53,0,0,0,2.53,1.17A12.51,12.51,0,0,1,28,54.73a21,21,0,0,1,3,2.08,3.43,3.43,0,0,0,.79.45,1.27,1.27,0,0,0,1.52-.3,3.62,3.62,0,0,0,1-2,10.7,10.7,0,0,1,1.23-3.45,3.16,3.16,0,0,0,.15-2.91,3.1,3.1,0,0,0-1-1.24c-.31-.22-.64-.43-.94-.68a2,2,0,0,1-.45-.54.65.65,0,0,1-.09-.45,3.24,3.24,0,0,0-.54-2.34A7,7,0,0,1,31.82,41a22.31,22.31,0,0,0-1-3.78,8.67,8.67,0,0,0-1-1.77,9.47,9.47,0,0,1-1.17-2.31,8.66,8.66,0,0,0-1.43-2.46A3.5,3.5,0,0,1,26.62,28a6.88,6.88,0,0,1,.67-2.22,14.28,14.28,0,0,0,.84-2.46,7.62,7.62,0,0,1,.38-1.14A2.1,2.1,0,0,1,29.81,21a9.3,9.3,0,0,1,2.66-.52c.69-.07,1.39-.05,2.08-.18a1.55,1.55,0,0,0,1.3-1.2,13.44,13.44,0,0,0,.27-1.38,2.19,2.19,0,0,1,1.12-1.56c.53-.32,1.09-.59,1.63-.89a5.56,5.56,0,0,0,2-2,8.29,8.29,0,0,0,1-2.52A1.94,1.94,0,0,0,40.6,8.33a2.18,2.18,0,0,0-.8-.15"/><path class="cls-1" d="M37,59c-.32,0-.56.15-.61.51.24.33.45.42.76.33a.42.42,0,0,0,.33-.45c0-.3-.25-.32-.45-.39"/><path class="cls-1" d="M23.78,8a2.54,2.54,0,0,0-1.85,2.64.84.84,0,0,0,1.42.61,3.45,3.45,0,0,0,1.5-2.5c.06-.46-.19-.71-.69-.75h-.35"/><path class="cls-1" d="M39.38,7.37a1.68,1.68,0,0,0-1.53,1.26,3.86,3.86,0,0,1-.7,1.08c-.23.27-.47.55-.72.81a5.5,5.5,0,0,0-1.32,2.34,2.72,2.72,0,0,1-1.23,1.76,4.67,4.67,0,0,1-1.77.49,5.07,5.07,0,0,1-2.4-.33,4.92,4.92,0,0,0-.78-.18,1.26,1.26,0,0,0-1.38.75,6.46,6.46,0,0,0-.59,2.1,11.08,11.08,0,0,1-.37,1.71A3.43,3.43,0,0,1,25,21a19.48,19.48,0,0,0-2.38,1.56,6.23,6.23,0,0,0-1.91,3.12,20.54,20.54,0,0,0-.67,4.41,12.65,12.65,0,0,0-.06,2,7.2,7.2,0,0,0,.4,1.35,3.44,3.44,0,0,1-.43,3,15.69,15.69,0,0,1-1.79,2.19,5.29,5.29,0,0,0-.85,1.14,2.65,2.65,0,0,0-.27,1.14,4.87,4.87,0,0,1-.38,2.16c-.2.39-.44.75-.63,1.14a3.58,3.58,0,0,0,.44,3.93,17.13,17.13,0,0,0,1.66,1.64,12,12,0,0,1,2,2.29c.34.51.69,1,1.07,1.5a1.79,1.79,0,0,0,1.84.72,6.4,6.4,0,0,1,2.72,0,9.52,9.52,0,0,1,3.91,2.06c.54.49,1.11,1,1.65,1.47a5.1,5.1,0,0,0,1.35.89,9.87,9.87,0,0,1,2.22,1.45,5.76,5.76,0,0,0,1.58,1,2,2,0,0,0,2.56-1,2.08,2.08,0,0,0,.35-1.38,1.5,1.5,0,0,0-1.32-1.26,4.73,4.73,0,0,0-1.8-.07,3.31,3.31,0,0,1-.77,0c-.36,0-.59-.27-.6-.71A9.53,9.53,0,0,1,35.36,53a8.74,8.74,0,0,1,.84-1.53,2.74,2.74,0,0,0,.39-1.83,6.76,6.76,0,0,0-1.21-3.12,10,10,0,0,1-.84-1.62,4.05,4.05,0,0,0-.78-1.29,6.35,6.35,0,0,1-1.7-3.81,16,16,0,0,1-.27-2.58,3.4,3.4,0,0,1,.11-.84,1,1,0,0,1,.81-.81,4.27,4.27,0,0,0,.61-.18c.14-.06.27-.12.26-.3s-.14-.23-.29-.28a2.08,2.08,0,0,0-1,0,2.08,2.08,0,0,1-1.87-.58,4.23,4.23,0,0,1-.95-1.27,17.58,17.58,0,0,0-1.69-2.66,3.45,3.45,0,0,1-.44-3.48Q28,25,28.64,23.12a2.87,2.87,0,0,1,2.22-1.95,8.37,8.37,0,0,1,3.66-.09,1.28,1.28,0,0,1,1.11,1.08A7.41,7.41,0,0,0,36,23.41a2.65,2.65,0,0,0,1.8,1.44c.51.17,1.06.21,1.59.37a1,1,0,0,1,.87,1.14,3.78,3.78,0,0,1-.82,2.19,7.46,7.46,0,0,0-1,1.86,2.56,2.56,0,0,0-.06,1.2A1.85,1.85,0,0,0,39.61,33a15.57,15.57,0,0,1,1.77.78,4.79,4.79,0,0,1,1.48,1.59,16.19,16.19,0,0,0,2.69,3.15,2.88,2.88,0,0,1,.61.81A1.65,1.65,0,0,1,46,41c-.22.36-.48.69-.72,1a1.61,1.61,0,0,0,.37,2.35,11.06,11.06,0,0,0,2.4,1.35,4.19,4.19,0,0,0,1.25.42,1.33,1.33,0,0,0,1.51-.63,1.69,1.69,0,0,0,0-1.92,3.51,3.51,0,0,0-.72-.72,3.88,3.88,0,0,1-1-1.2,2.08,2.08,0,0,1,.24-2.36,2.91,2.91,0,0,1,1.95-1.15,1.83,1.83,0,0,1,1.86.6,1.88,1.88,0,0,1,.29,1.38c-.07.6-.2,1.2-.29,1.8a1.7,1.7,0,0,0,.09,1.11,1.57,1.57,0,0,0,1.44.77,5,5,0,0,0,3-1,14.55,14.55,0,0,1,1.45-.9,3.92,3.92,0,0,1,2.27-.24,4.38,4.38,0,0,0,3.18-.64,2.3,2.3,0,0,0,1.11-2.21,2,2,0,0,0-.95-1.5,4.57,4.57,0,0,0-.79-.47A14.9,14.9,0,0,1,61,35c-.43-.33-.83-.68-1.27-1a2.91,2.91,0,0,1-1.17-2.88,11,11,0,0,1,.07-1.29,8.21,8.21,0,0,1,.71-1.92,6.17,6.17,0,0,0,.55-2.46c0-.86,0-1.72,0-2.58a3.09,3.09,0,0,1,2-2.83,14.18,14.18,0,0,0,1.6-.71A2.31,2.31,0,0,0,64.64,18a1.66,1.66,0,0,0-1.27-2.3,26.69,26.69,0,0,1-4.17-1.44,16.25,16.25,0,0,0-2.87-.92,2.68,2.68,0,0,0-1.29,0c-.86.26-1.08.8-1,1.67a20.39,20.39,0,0,0,.43,2.31,4,4,0,0,1,.07,1.38,1.81,1.81,0,0,1-1.09,1.46,11.88,11.88,0,0,1-3.06.85,3.78,3.78,0,0,1-3-.87,4.13,4.13,0,0,0-1.16-.7,1.74,1.74,0,0,0-2,.54l-.65.79a2,2,0,0,1-2,.83c-1.24-.25-2.48-.42-3.69-.78a4.67,4.67,0,0,1-.75-.35c-.53-.26-.52-.76-.54-1.23a3,3,0,0,1,1.52-2.92c.59-.36,1.2-.69,1.78-1.07a3.59,3.59,0,0,0,1.47-1.68c.35-.85.77-1.67,1-2.55a2.61,2.61,0,0,0,.07-1.68,1.87,1.87,0,0,0-.61-.87,5.4,5.4,0,0,0-2.13-1c-.1,0-.22,0-.32,0"/><path class="cls-1" d="M25.25,59.84a4.09,4.09,0,0,0-2.35,1.32,2.15,2.15,0,0,0-.59,1.26A1.21,1.21,0,0,0,24,63.8a4.36,4.36,0,0,0,2.29-1.59,3,3,0,0,0,.45-.84,1.07,1.07,0,0,0-1.08-1.53h-.33"/><path class="cls-1" d="M51.41,39.08a1.76,1.76,0,0,0-1.5,1.41,1.11,1.11,0,0,0,.06.78,1.88,1.88,0,0,0,1,1.07,1,1,0,0,0,1.34-.5,2.7,2.7,0,0,0,.36-1.68,1.18,1.18,0,0,0-1.25-1.08"/><path class="cls-1" d="M38.33,6.08c-.59.12-.69.62-.81,1.08a8.38,8.38,0,0,0-.18.87,3.26,3.26,0,0,1-.78,1.59,6.22,6.22,0,0,1-.64.72,4.32,4.32,0,0,0-1.35,2.34,2.65,2.65,0,0,1-3.08,2A6.83,6.83,0,0,1,29.33,14a3.12,3.12,0,0,0-.88-.24,1.42,1.42,0,0,0-1.37.9,6.19,6.19,0,0,0-.61,2.1,18,18,0,0,1-.35,1.92,3.35,3.35,0,0,1-1.24,1.74c-.55.44-1.17.78-1.73,1.2a7.38,7.38,0,0,0-2.74,4.08c-.31,1.13-.48,2.3-.71,3.45a17.29,17.29,0,0,0-.3,2,6.49,6.49,0,0,0,.32,2.31,3.63,3.63,0,0,1-.21,2.76,5.93,5.93,0,0,1-1,1.32,23.32,23.32,0,0,0-1.62,1.68,3.56,3.56,0,0,0-.69,1.44,6.93,6.93,0,0,1-1,2.44,2.69,2.69,0,0,0-.39,1.64,6.28,6.28,0,0,0,2.3,4.58,10.17,10.17,0,0,1,2.34,3.22c.32.68.67,1.34,1,2a1.67,1.67,0,0,0,1.95.75c.41-.11.82-.25,1.23-.39a4.63,4.63,0,0,1,3.45.15,8.77,8.77,0,0,1,3.5,2.61A8.69,8.69,0,0,0,33,59.9c.94.55,1.82,1.22,2.82,1.71a4.64,4.64,0,0,0,1.14.44,2,2,0,0,0,1.55-.26,7.5,7.5,0,0,0,1.94-1.69,2.76,2.76,0,0,0,.25-2.84,2.21,2.21,0,0,0-.18-.42,1.19,1.19,0,0,0-1.16-.51,14.59,14.59,0,0,1-1.74.15,2.89,2.89,0,0,1-1.12-.24,1.52,1.52,0,0,1-.89-1.38,3.48,3.48,0,0,1,.78-2.61,3.25,3.25,0,0,0,.8-1.89,5.26,5.26,0,0,0-.24-1.77,18.91,18.91,0,0,0-2.25-4.74A4.43,4.43,0,0,0,34,43a4.83,4.83,0,0,1-1.47-3.6A7.25,7.25,0,0,1,32.62,38a1.31,1.31,0,0,1,.75-1c.57-.29,1.19-.45,1.75-.76a1.74,1.74,0,0,0,.74-.65,1.09,1.09,0,0,0-.18-1.51,2.37,2.37,0,0,0-1-.31c-.91-.17-1.82-.27-2.74-.35a3,3,0,0,1-2.27-1.27c-.57-.76-1.13-1.51-1.68-2.28a3.1,3.1,0,0,1-.39-3c.42-1.22.85-2.44,1.35-3.63a2.75,2.75,0,0,1,1.86-1.61,5.15,5.15,0,0,1,2.7-.13,1.94,1.94,0,0,1,1.57,1.35,3.73,3.73,0,0,0,2.8,2.67,3.35,3.35,0,0,1,.88.41,1.17,1.17,0,0,1,.47,1.42,3.51,3.51,0,0,1-.69,1.22,5.09,5.09,0,0,0-1,2.77,3.47,3.47,0,0,0,0,.72,1.47,1.47,0,0,0,1.1,1.3c.46.14.93.24,1.39.41a3.9,3.9,0,0,1,2.27,2,6.34,6.34,0,0,0,1.95,2.43,3.27,3.27,0,0,1,.85,1,1.87,1.87,0,0,1-.12,2.1,4,4,0,0,0-.64,1.44,2,2,0,0,0,.49,1.68,6.12,6.12,0,0,0,1.77,1.31A22.54,22.54,0,0,0,49.3,47a3.4,3.4,0,0,0,1.47.27,1.24,1.24,0,0,0,1.09-.84c.11-.28.23-.57.36-.84a1.49,1.49,0,0,1,1.44-.9,7.63,7.63,0,0,0,4.58-1.54,4.66,4.66,0,0,1,2.65-.94c.51,0,1,.06,1.55,0a3.91,3.91,0,0,0,3.15-1.61,3.38,3.38,0,0,0,.57-1.68,1.76,1.76,0,0,0-.89-1.75,13.34,13.34,0,0,0-1.42-.7,10.69,10.69,0,0,1-2.6-1.75c-.47-.4-.92-.81-1.39-1.2a3,3,0,0,1-1-2.67,9.28,9.28,0,0,1,.78-2.58A7.19,7.19,0,0,0,60.29,26a2.18,2.18,0,0,0,0-.51,9.47,9.47,0,0,1,.09-1.92A3.8,3.8,0,0,1,60.74,22a3.42,3.42,0,0,1,1.79-1.56,7.72,7.72,0,0,0,2.13-1.11,2.74,2.74,0,0,0,.91-2.52,2.81,2.81,0,0,0-.45-1.26,2,2,0,0,0-1.68-1,9.28,9.28,0,0,1-2.58-.34c-1-.31-2-.67-3.07-1a10.9,10.9,0,0,0-2.12-.5A1.74,1.74,0,0,0,53.6,14.9c.08.79.33,1.55.45,2.34A3.06,3.06,0,0,1,54,18.77a1.71,1.71,0,0,1-.91,1,7.81,7.81,0,0,1-2,.68,3.86,3.86,0,0,1-3-.56,11.56,11.56,0,0,0-1.76-1.11,2.9,2.9,0,0,0-1-.3,1.53,1.53,0,0,0-1.23.42,8,8,0,0,0-.77.87,2.59,2.59,0,0,1-2.05,1,6.87,6.87,0,0,1-2.51-.3,1.93,1.93,0,0,1-1.27-1,2.08,2.08,0,0,1,.28-2.13,4.27,4.27,0,0,1,1.49-1.24c.64-.38,1.35-.63,2-1.06a1.53,1.53,0,0,0,.59-.79c.42-1.3.86-2.6,1.25-3.91a2,2,0,0,0-1.08-2.61,24.53,24.53,0,0,0-2.36-1.31,2.38,2.38,0,0,0-1.22-.33"/><path class="cls-1" d="M37.4,4.19c-.83.12-.9.8-.87,1.44a19,19,0,0,1,.08,2.13A2.93,2.93,0,0,1,35.24,10a4.45,4.45,0,0,0-.79.71,3.09,3.09,0,0,0-.54,1.45A2.26,2.26,0,0,1,33,13.82a2.4,2.4,0,0,1-2.13.17c-.57-.2-1.1-.49-1.66-.74a1.74,1.74,0,0,0-2.6,1,8.43,8.43,0,0,0-.67,2.43,8.9,8.9,0,0,1-.59,2.43,2.7,2.7,0,0,1-.93,1.05,14,14,0,0,0-3,2.78,7.69,7.69,0,0,0-1.28,2.77c-.4,1.56-.75,3.14-1.15,4.71a5.87,5.87,0,0,0,0,2.67,12.07,12.07,0,0,1,.3,1.68,3,3,0,0,1-.68,2.1,6.35,6.35,0,0,1-1.33,1.31,10.61,10.61,0,0,0-2.13,2,2.86,2.86,0,0,1-1.82,1.05,6.23,6.23,0,0,0-1.93.53A4,4,0,0,0,9.35,44a2.56,2.56,0,0,0,1.1,2.91,1.62,1.62,0,0,0,1.5,0l1-.38a1.11,1.11,0,0,1,1.23.27,3.66,3.66,0,0,1,.55.63,16.09,16.09,0,0,0,2,2.28,5.67,5.67,0,0,1,.85,1.1,4.16,4.16,0,0,1,.57,1.87c0,.22,0,.44,0,.66a3.15,3.15,0,0,0,.44,1.29.75.75,0,0,1,.13.36c0,.13.06.25-.07.33s-.28,0-.39-.12-.3-.47-.47-.7a2.42,2.42,0,0,0-1.84-.92,9.32,9.32,0,0,0-3,.32,3.33,3.33,0,0,1-1.26.14.51.51,0,0,1-.48-.46c-.08-.42-.11-.84-.15-1.26a12.22,12.22,0,0,0-.32-2.49A1.17,1.17,0,0,0,9,49.06a14.39,14.39,0,0,0-2.49,1.66,1.41,1.41,0,0,0-.59,1,1.26,1.26,0,0,0,.59,1.11,6.6,6.6,0,0,0,1.72.86,14.38,14.38,0,0,1,1.71.76.66.66,0,0,1,.35.93c-.17.44-.36.89-.57,1.32a7,7,0,0,0-.6,3.69c.06.83.1,1.66.1,2.49a4.44,4.44,0,0,0,.09,1.26,2.64,2.64,0,0,0,2.34,2,8.84,8.84,0,0,0,3.92-.43,7.85,7.85,0,0,0,2.67-1.28,5,5,0,0,0,1.59-2.52,5.7,5.7,0,0,0,.3-2c0-.57-.13-1.14-.21-1.71a5.57,5.57,0,0,1,0-1.08c0-.44.17-.55.6-.56a8.53,8.53,0,0,0,3.29-.85,4.14,4.14,0,0,1,3.22,0,6.55,6.55,0,0,1,3.26,2.49,6.9,6.9,0,0,0,1.78,2c.48.31,1,.6,1.46.9a29.94,29.94,0,0,0,2.8,1.62c.22.1.45.19.68.27a1.69,1.69,0,0,0,1.68-.24c1-.75,2-1.4,2.94-2.16a2.33,2.33,0,0,0,.75-2.61,9.09,9.09,0,0,0-1.26-2.58,1.35,1.35,0,0,0-1.74-.42,13.78,13.78,0,0,1-1.46.46,1.24,1.24,0,0,1-1.42-1.57,4.62,4.62,0,0,1,.76-1.5,3.35,3.35,0,0,0,.51-2.61,14.51,14.51,0,0,0-1-3.3,15.49,15.49,0,0,0-2-3.33c-.15-.19-.34-.36-.5-.54a4,4,0,0,1-1-3.6,2,2,0,0,1,1.53-1.5,9,9,0,0,1,.93-.24,2,2,0,0,0,1.68-1.53,1.77,1.77,0,0,1,.68-1.06,2,2,0,0,1,1.83-.1,3.15,3.15,0,0,1,1.12.7,3.25,3.25,0,0,1,.74,1.21,4.22,4.22,0,0,0,1.53,2.07,4,4,0,0,1,.88.81,1.75,1.75,0,0,1,.06,2,4.74,4.74,0,0,0-.5,1.53,2.32,2.32,0,0,0,.76,1.92,8.39,8.39,0,0,0,2,1.35c1,.55,1.86,1.17,2.86,1.65a5.61,5.61,0,0,0,2.49.64,1.4,1.4,0,0,0,1.52-1.18,2.4,2.4,0,0,1,1.8-1.9,16,16,0,0,0,2.62-1.07c.48-.26.93-.58,1.4-.85a4.9,4.9,0,0,1,2-.59,10.23,10.23,0,0,0,3.1-.57,3.3,3.3,0,0,0,1.37-1.05,4.92,4.92,0,0,0,1.08-3,1.39,1.39,0,0,0-1.17-1.61,12.58,12.58,0,0,1-1.82-.62,10,10,0,0,1-2.28-1.58A18.64,18.64,0,0,1,60,32.81a2.6,2.6,0,0,1-.6-1.89,4.83,4.83,0,0,1,.63-2,9.62,9.62,0,0,0,.61-1.35,4.11,4.11,0,0,0,.13-1.74A5.54,5.54,0,0,1,61.16,23a3.45,3.45,0,0,1,1.49-1.6c.72-.43,1.52-.72,2.23-1.18a3.23,3.23,0,0,0,1.56-3A4.8,4.8,0,0,0,66,15a2.68,2.68,0,0,0-1.81-1.37,9.43,9.43,0,0,0-2.6-.11,7.12,7.12,0,0,1-1.6-.16c-1.21-.26-2.39-.64-3.59-.93a3.16,3.16,0,0,0-2.08.06,1.85,1.85,0,0,0-1.16,1.68,7.36,7.36,0,0,0,.39,2.37,3.21,3.21,0,0,1,0,1.74,1.81,1.81,0,0,1-.73,1,3.74,3.74,0,0,1-4.64,0,16.14,16.14,0,0,0-2.23-1.32,15.2,15.2,0,0,0-2.15-.84.32.32,0,0,0-.44.17,5.25,5.25,0,0,0-.31,1,2.75,2.75,0,0,1-2.44,1.83,3,3,0,0,1-1.62-.3,1.45,1.45,0,0,1-.47-2.43A3.85,3.85,0,0,1,41.12,16c.36,0,.73.08,1.11.06a1,1,0,0,0,.45-.08,4.15,4.15,0,0,0,0-1.57A5.16,5.16,0,0,1,43,11.87c.27-.76.66-1.46.91-2.22a1.77,1.77,0,0,0-.37-2,3.72,3.72,0,0,0-.9-.6,3.69,3.69,0,0,1-1.58-1.45A1.56,1.56,0,0,0,40,4.75c-.58-.12-1.13-.38-1.71-.5a3.4,3.4,0,0,0-.84-.06"/><path class="cls-1" d="M29.3,2.93c-1.08.17-1.48,1-1.68,1.89a5,5,0,0,0-.09.78.8.8,0,0,0,.29.75,2.68,2.68,0,0,0,2.61.53,1.57,1.57,0,0,0,1.13-2A2.4,2.4,0,0,0,29.86,3a1.57,1.57,0,0,0-.53-.06"/><path class="cls-1" d="M29,2.18c-1,.06-1.38.74-1.68,1.53s-.48,1.35-.76,2a1.91,1.91,0,0,1-1.4,1.21,12.24,12.24,0,0,0-1.78.46,3.54,3.54,0,0,0-2.26,2.92,2,2,0,0,0,.28,1.62,1.11,1.11,0,0,0,1.51.4,4.38,4.38,0,0,0,1.91-1.9,18.68,18.68,0,0,0,1.09-2.31,2.62,2.62,0,0,1,.3-.51,1.23,1.23,0,0,1,1.28-.41c.61.06,1.2.21,1.81.28a2.76,2.76,0,0,0,2-.32,1.92,1.92,0,0,0,.86-1.59,3.11,3.11,0,0,0-1.65-3,3,3,0,0,0-1.46-.36"/><path class="cls-1" d="M24.17,61.4a1.06,1.06,0,0,0-.79.69c-.1.34,0,.71.52.66a1.13,1.13,0,0,0,.92-.84c.07-.31-.1-.5-.42-.51h-.2"/><path class="cls-1" d="M55.37,1.4a4.13,4.13,0,0,0-1.09.26,1.61,1.61,0,0,0-.68.58c-.17.25-.05.47.27.51a10.71,10.71,0,0,0,1.79,0,4.48,4.48,0,0,0,1-.14c.35-.1.44-.31.24-.63a1.28,1.28,0,0,0-.82-.54,3.37,3.37,0,0,0-.71-.09"/><path class="cls-1" d="M28.67,1A2,2,0,0,0,27,2.6a13.66,13.66,0,0,1-.71,2.07A3.64,3.64,0,0,1,24.17,6.5a10.68,10.68,0,0,0-1.6.6,3.67,3.67,0,0,0-1.91,2.34,4.85,4.85,0,0,0-.29,1.92,3.28,3.28,0,0,0,.83,2.07,1.16,1.16,0,0,0,1.52.17,3.81,3.81,0,0,0,.94-.71,11.55,11.55,0,0,0,1.92-2.58,11.6,11.6,0,0,1,.9-1.41,2.1,2.1,0,0,1,1.83-.84c.58,0,1.18,0,1.76,0a3.38,3.38,0,0,0,2-.6,1.78,1.78,0,0,0,.82-1.61,5.41,5.41,0,0,0-.94-3,4.26,4.26,0,0,0-1.32-1.14A5.27,5.27,0,0,0,28.87,1a1,1,0,0,0-.17,0"/><path class="cls-1" d="M45.92,1a1.71,1.71,0,0,0-1.27.84c-.2.3-.18.43.13.63A1.08,1.08,0,0,0,46,2.35a1.08,1.08,0,0,0,.48-.53A.6.6,0,0,0,46,1"/><path class="cls-1" d="M15.77,23.54A2.66,2.66,0,0,0,14.08,25a4.71,4.71,0,0,0-.6,2,1.72,1.72,0,0,0,.28,1.07c.2.31.44.35.81.19a2.16,2.16,0,0,0,.68-.52,8.82,8.82,0,0,0,1.5-1.83A2.15,2.15,0,0,0,17,24.29c-.12-.51-.53-.75-1.19-.75"/><path class="cls-1" d="M17.12.77a2.3,2.3,0,0,0-1.5.84,1,1,0,0,0-.19,1,.9.9,0,0,0,.76.59,1.73,1.73,0,0,0,1.94-1.31A.8.8,0,0,0,17.29.77h-.14"/><path class="cls-1" d="M23.09.56A2.39,2.39,0,0,0,21.8,2.45a2.35,2.35,0,0,0-.07.6A1,1,0,0,0,23,4a1.29,1.29,0,0,0,.8-.54,2.55,2.55,0,0,0,.33-2.19.84.84,0,0,0-1-.72"/><path class="cls-1" d="M54.89.38a6.59,6.59,0,0,0-1.3.29A2.18,2.18,0,0,0,52,2.84,4.83,4.83,0,0,0,52,4.1c.13.41.37.61.9.45s.73-.3,1.1-.45A4.76,4.76,0,0,1,57.22,4a4.89,4.89,0,0,0,1.42.27A.25.25,0,0,0,58.93,4a2.11,2.11,0,0,0-.48-2A4.21,4.21,0,0,0,54.92.38"/><path class="cls-1" d="M31.79,23.78c-1,.14-1.36.87-1.59,1.71a8.2,8.2,0,0,0-.25,2,2.17,2.17,0,0,0,2,2.06,1.31,1.31,0,0,0,1.17-.59,3.38,3.38,0,0,0,.38-3.51,4.19,4.19,0,0,0-.44-.84,1.67,1.67,0,0,0-1.2-.81"/><path class="cls-1" d="M24.89,37.82a3.29,3.29,0,0,0-1.42.9A5.43,5.43,0,0,0,22,40.37,1.44,1.44,0,0,0,22,41.54a3.53,3.53,0,0,0,.71,1.23,1.38,1.38,0,0,0,1.83.21,1.41,1.41,0,0,0,.52-.51,7.81,7.81,0,0,0,1-2.4,2.38,2.38,0,0,0-.43-1.89.73.73,0,0,0-.66-.36"/><path class="cls-1" d="M65,24a2,2,0,0,0-1.09.48,1.22,1.22,0,1,0,2,1.23,2.65,2.65,0,0,0,0-.93A.86.86,0,0,0,65,24"/><path class="cls-1" d="M59.6,37c-.47.1-.61.46-.66.87a.7.7,0,0,0,.35.66,8.41,8.41,0,0,0,1.57.9c.28.13.57.27.87.38a1.84,1.84,0,0,0,1.16,0c.62-.18.74-.59.33-1.08a5,5,0,0,0-2-1.35A3.48,3.48,0,0,0,59.63,37"/><path class="cls-1" d="M25.43,36a10.38,10.38,0,0,0-2.31,1.74,12.25,12.25,0,0,0-1.66,1.64,2.24,2.24,0,0,0-.29,2.47A6.51,6.51,0,0,0,22,43.3a1.92,1.92,0,0,0,2.45.81,3.75,3.75,0,0,0,2.14-1.37,8.89,8.89,0,0,1,1-1.12c.59-.58.67-.69.3-1.61a11.25,11.25,0,0,0-.72-1.32,11.63,11.63,0,0,1-.71-1.89,2.22,2.22,0,0,0-.34-.6C26,36,25.69,36,25.46,36"/><path class="cls-1" d="M58.91,35.9c-.82.19-1.1.85-1.32,1.53-.15.49-.27,1-.42,1.5,0,0,0,0,0,.06-.08.59-.06.69.58.77a2.49,2.49,0,0,0,.77,0,4.85,4.85,0,0,1,2.58.38,6.46,6.46,0,0,0,1.42.37,1.59,1.59,0,0,0,1.59-.8.92.92,0,0,0-.07-1,3.78,3.78,0,0,0-1.37-1.14c-.79-.49-1.61-.92-2.41-1.38a2.14,2.14,0,0,0-1.31-.3"/><path class="cls-1" d="M24.53,24.14a2.58,2.58,0,0,0-2.13,2.43,8.93,8.93,0,0,0-.12,2.25,1.43,1.43,0,0,0,.48,1c.44.4.95.29,1.38-.24a2.44,2.44,0,0,0,.41-1A18.55,18.55,0,0,1,25.27,26a2.8,2.8,0,0,0,.18-1c0-.63-.27-1-.89-.9"/><path class="cls-1" d="M25.7,33.59c-.43.12-.61.49-.78.84a6,6,0,0,1-1.38,2c-.61.52-1.27,1-1.87,1.55a5.93,5.93,0,0,0-1.52,1.89,2,2,0,0,0,0,1.68c.42.93.88,1.85,1.28,2.79a1.41,1.41,0,0,0,1.65.92,11.24,11.24,0,0,0,1.72-.38,4.37,4.37,0,0,1,2,.06,3.5,3.5,0,0,0,.72.06,1,1,0,0,0,.72-.25,5.5,5.5,0,0,0,1.59-2.6,3.29,3.29,0,0,0-.68-2.88,10.27,10.27,0,0,0-.7-.78,4.85,4.85,0,0,1-1-2.16,5.83,5.83,0,0,0-.65-1.95,1.33,1.33,0,0,0-1.05-.75"/><path class="cls-1" d="M45.89,24.44A1.79,1.79,0,0,0,44.6,26c-.09.61-.05.63.56.81a1.63,1.63,0,0,0,1.23-.07.91.91,0,0,0,.52-1.07,2.31,2.31,0,0,0-.33-.81.88.88,0,0,0-.66-.45"/><path class="cls-1" d="M15.68,24.47a1.86,1.86,0,0,0-1.26,1.74c0,.53.3.75.77.5a2,2,0,0,0,1.08-1.4.73.73,0,0,0-.56-.84"/><path class="cls-1" d="M31.67,24.56a1.16,1.16,0,0,0-.84.87,3.45,3.45,0,0,0-.15,2.13,1.36,1.36,0,0,0,.53.72.93.93,0,0,0,1.38-.39,2.81,2.81,0,0,0,.09-2.64,1.07,1.07,0,0,0-1-.69"/><path class="cls-1" d="M65.45,31.22a1.57,1.57,0,0,0-.91.42.93.93,0,0,0-.23.93.75.75,0,0,0,.81.39,1.58,1.58,0,0,0,1.25-1.11c.06-.34,0-.45-.35-.57a1.43,1.43,0,0,0-.54-.06"/><path class="cls-1" d="M45.5,30.83c-.1.05-.25,0-.31.15s-.06.25,0,.32a.49.49,0,0,0,.47.15c.1,0,.24,0,.25-.2a.37.37,0,0,0-.28-.39l-.11,0"/><path class="cls-1" d="M54.05,30.14a2.11,2.11,0,0,0-1.54.9.94.94,0,0,0,.64,1.52A2,2,0,0,0,54.8,32a1.12,1.12,0,0,0,.32-1.26,1,1,0,0,0-1-.63"/><path class="cls-1" d="M53.93,29.42A3,3,0,0,0,51.38,32a2.48,2.48,0,0,0-.13.72.63.63,0,0,0,.48.69,1.89,1.89,0,0,0,1,.12,4.73,4.73,0,0,0,2.46-.9,1.84,1.84,0,0,0,.15-2.73A2.3,2.3,0,0,0,54,29.42"/><path class="cls-1" d="M54.05,28.7A3.07,3.07,0,0,0,51.68,30a7.55,7.55,0,0,0-.63,1,8,8,0,0,0-.84,2.16,1,1,0,0,0,.68,1.2,2.35,2.35,0,0,0,1.39,0,11.85,11.85,0,0,0,2.42-.65,2.87,2.87,0,0,0,1.72-2.51,2.35,2.35,0,0,0-.88-2,2.24,2.24,0,0,0-1.46-.45"/><path class="cls-1" d="M20.51,15.38c-.56.09-1.13.1-1.69.24a8.62,8.62,0,0,0-1,.27,1.9,1.9,0,0,0-1.23,1.44c-.08.31-.17.62-.24.93a3.25,3.25,0,0,1-1.31,1.8,6.66,6.66,0,0,0-1,1,5.43,5.43,0,0,0-.77,1.47c-.39,1-.87,1.87-1.33,2.79a10.54,10.54,0,0,0-1,3.42c-.11.85-.32,1.68-.49,2.52a8,8,0,0,0-.09,3.15A11.47,11.47,0,0,0,10.69,36c.14.36.29.67.72.75a1.27,1.27,0,0,0,.55,0,18.45,18.45,0,0,0,3.38-1.15c1.1-.49,1.13-1,1.08-2s-.28-1.63-.27-2.46a4.23,4.23,0,0,1,.36-1.53,23.05,23.05,0,0,1,1.28-2.34,9.69,9.69,0,0,0,.76-1.86c.33-1.08.5-2.19.79-3.27a5.24,5.24,0,0,1,1.91-2.86,11.22,11.22,0,0,0,1.09-1,1.61,1.61,0,0,0,.34-1.68,1.57,1.57,0,0,0-1.3-1.17,3.4,3.4,0,0,0-.84-.06"/></g></g></svg>